  0
SECTION
  2
HEADER
  9
$ACADVER
  1
AC1024
  9
$ACADMAINTVER
 70
6
  9
$DWGCODEPAGE
  3
ANSI_1252
  9
$LASTSAVEDBY
  1
ezdxf
  9
$INSBASE
 10
0.0
 20
0.0
 30
0.0
  9
$EXTMIN
 10
1e+20
 20
1e+20
 30
1e+20
  9
$EXTMAX
 10
-1e+20
 20
-1e+20
 30
-1e+20
  9
$LIMMIN
 10
0.0
 20
0.0
  9
$LIMMAX
 10
420.0
 20
297.0
  9
$ORTHOMODE
 70
0
  9
$REGENMODE
 70
1
  9
$FILLMODE
 70
1
  9
$QTEXTMODE
 70
0
  9
$MIRRTEXT
 70
1
  9
$LTSCALE
 40
1.0
  9
$ATTMODE
 70
1
  9
$TEXTSIZE
 40
2.5
  9
$TRACEWID
 40
1.0
  9
$TEXTSTYLE
  7
Standard
  9
$CLAYER
  8
0
  9
$CELTYPE
  6
ByLayer
  9
$CECOLOR
 62
256
  9
$CELTSCALE
 40
1.0
  9
$DISPSILH
 70
0
  9
$DIMSCALE
 40
1.0
  9
$DIMASZ
 40
2.5
  9
$DIMEXO
 40
0.625
  9
$DIMDLI
 40
3.75
  9
$DIMRND
 40
0.0
  9
$DIMDLE
 40
0.0
  9
$DIMEXE
 40
1.25
  9
$DIMTP
 40
0.0
  9
$DIMTM
 40
0.0
  9
$DIMTXT
 40
2.5
  9
$DIMCEN
 40
2.5
  9
$DIMTSZ
 40
0.0
  9
$DIMTOL
 70
0
  9
$DIMLIM
 70
0
  9
$DIMTIH
 70
0
  9
$DIMTOH
 70
0
  9
$DIMSE1
 70
0
  9
$DIMSE2
 70
0
  9
$DIMTAD
 70
1
  9
$DIMZIN
 70
8
  9
$DIMBLK
  1

  9
$DIMASO
 70
1
  9
$DIMSHO
 70
1
  9
$DIMPOST
  1

  9
$DIMAPOST
  1

  9
$DIMALT
 70
0
  9
$DIMALTD
 70
3
  9
$DIMALTF
 40
0.03937007874
  9
$DIMLFAC
 40
1.0
  9
$DIMTOFL
 70
1
  9
$DIMTVP
 40
0.0
  9
$DIMTIX
 70
0
  9
$DIMSOXD
 70
0
  9
$DIMSAH
 70
0
  9
$DIMBLK1
  1

  9
$DIMBLK2
  1

  9
$DIMSTYLE
  2
ISO-25
  9
$DIMCLRD
 70
0
  9
$DIMCLRE
 70
0
  9
$DIMCLRT
 70
0
  9
$DIMTFAC
 40
1.0
  9
$DIMGAP
 40
0.625
  9
$DIMJUST
 70
0
  9
$DIMSD1
 70
0
  9
$DIMSD2
 70
0
  9
$DIMTOLJ
 70
0
  9
$DIMTZIN
 70
8
  9
$DIMALTZ
 70
0
  9
$DIMALTTZ
 70
0
  9
$DIMUPT
 70
0
  9
$DIMDEC
 70
2
  9
$DIMTDEC
 70
2
  9
$DIMALTU
 70
2
  9
$DIMALTTD
 70
3
  9
$DIMTXSTY
  7
Standard
  9
$DIMAUNIT
 70
0
  9
$DIMADEC
 70
0
  9
$DIMALTRND
 40
0.0
  9
$DIMAZIN
 70
0
  9
$DIMDSEP
 70
44
  9
$DIMATFIT
 70
3
  9
$DIMFRAC
 70
0
  9
$DIMLDRBLK
  1

  9
$DIMLUNIT
 70
2
  9
$DIMLWD
 70
-2
  9
$DIMLWE
 70
-2
  9
$DIMTMOVE
 70
0
  9
$DIMFXL
 40
1.0
  9
$DIMFXLON
 70
0
  9
$DIMJOGANG
 40
0.785398163397
  9
$DIMTFILL
 70
0
  9
$DIMTFILLCLR
 70
0
  9
$DIMARCSYM
 70
0
  9
$DIMLTYPE
  6

  9
$DIMLTEX1
  6

  9
$DIMLTEX2
  6

  9
$DIMTXTDIRECTION
 70
0
  9
$LUNITS
 70
2
  9
$LUPREC
 70
4
  9
$SKETCHINC
 40
1.0
  9
$FILLETRAD
 40
10.0
  9
$AUNITS
 70
0
  9
$AUPREC
 70
2
  9
$MENU
  1
.
  9
$ELEVATION
 40
0.0
  9
$PELEVATION
 40
0.0
  9
$THICKNESS
 40
0.0
  9
$LIMCHECK
 70
0
  9
$CHAMFERA
 40
0.0
  9
$CHAMFERB
 40
0.0
  9
$CHAMFERC
 40
0.0
  9
$CHAMFERD
 40
0.0
  9
$SKPOLY
 70
0
  9
$TDCREATE
 40
2460772.7388541666
  9
$TDUCREATE
 40
2458532.153996898
  9
$TDUPDATE
 40
2460772.7388541666
  9
$TDUUPDATE
 40
2458532.1544311
  9
$TDINDWG
 40
0.0
  9
$TDUSRTIMER
 40
0.0
  9
$USRTIMER
 70
1
  9
$ANGBASE
 50
0.0
  9
$ANGDIR
 70
0
  9
$PDMODE
 70
0
  9
$PDSIZE
 40
0.0
  9
$PLINEWID
 40
0.0
  9
$SPLFRAME
 70
0
  9
$SPLINETYPE
 70
6
  9
$SPLINESEGS
 70
8
  9
$HANDSEED
  5
28E
  9
$SURFTAB1
 70
6
  9
$SURFTAB2
 70
6
  9
$SURFTYPE
 70
6
  9
$SURFU
 70
6
  9
$SURFV
 70
6
  9
$UCSBASE
  2

  9
$UCSNAME
  2

  9
$UCSORG
 10
0.0
 20
0.0
 30
0.0
  9
$UCSXDIR
 10
1.0
 20
0.0
 30
0.0
  9
$UCSYDIR
 10
0.0
 20
1.0
 30
0.0
  9
$UCSORTHOREF
  2

  9
$UCSORTHOVIEW
 70
0
  9
$UCSORGTOP
 10
0.0
 20
0.0
 30
0.0
  9
$UCSORGBOTTOM
 10
0.0
 20
0.0
 30
0.0
  9
$UCSORGLEFT
 10
0.0
 20
0.0
 30
0.0
  9
$UCSORGRIGHT
 10
0.0
 20
0.0
 30
0.0
  9
$UCSORGFRONT
 10
0.0
 20
0.0
 30
0.0
  9
$UCSORGBACK
 10
0.0
 20
0.0
 30
0.0
  9
$PUCSBASE
  2

  9
$PUCSNAME
  2

  9
$PUCSORG
 10
0.0
 20
0.0
 30
0.0
  9
$PUCSXDIR
 10
1.0
 20
0.0
 30
0.0
  9
$PUCSYDIR
 10
0.0
 20
1.0
 30
0.0
  9
$PUCSORTHOREF
  2

  9
$PUCSORTHOVIEW
 70
0
  9
$PUCSORGTOP
 10
0.0
 20
0.0
 30
0.0
  9
$PUCSORGBOTTOM
 10
0.0
 20
0.0
 30
0.0
  9
$PUCSORGLEFT
 10
0.0
 20
0.0
 30
0.0
  9
$PUCSORGRIGHT
 10
0.0
 20
0.0
 30
0.0
  9
$PUCSORGFRONT
 10
0.0
 20
0.0
 30
0.0
  9
$PUCSORGBACK
 10
0.0
 20
0.0
 30
0.0
  9
$USERI1
 70
0
  9
$USERI2
 70
0
  9
$USERI3
 70
0
  9
$USERI4
 70
0
  9
$USERI5
 70
0
  9
$USERR1
 40
0.0
  9
$USERR2
 40
0.0
  9
$USERR3
 40
0.0
  9
$USERR4
 40
0.0
  9
$USERR5
 40
0.0
  9
$WORLDVIEW
 70
1
  9
$SHADEDGE
 70
3
  9
$SHADEDIF
 70
70
  9
$TILEMODE
 70
1
  9
$MAXACTVP
 70
64
  9
$PINSBASE
 10
0.0
 20
0.0
 30
0.0
  9
$PLIMCHECK
 70
0
  9
$PEXTMIN
 10
1e+20
 20
1e+20
 30
1e+20
  9
$PEXTMAX
 10
-1e+20
 20
-1e+20
 30
-1e+20
  9
$PLIMMIN
 10
0.0
 20
0.0
  9
$PLIMMAX
 10
420.0
 20
297.0
  9
$UNITMODE
 70
0
  9
$VISRETAIN
 70
1
  9
$PLINEGEN
 70
0
  9
$PSLTSCALE
 70
1
  9
$TREEDEPTH
 70
3020
  9
$CMLSTYLE
  2
Standard
  9
$CMLJUST
 70
0
  9
$CMLSCALE
 40
20.0
  9
$PROXYGRAPHICS
 70
1
  9
$MEASUREMENT
 70
1
  9
$CELWEIGHT
370
-1
  9
$ENDCAPS
280
0
  9
$JOINSTYLE
280
0
  9
$LWDISPLAY
290
0
  9
$INSUNITS
 70
6
  9
$HYPERLINKBASE
  1

  9
$STYLESHEET
  1

  9
$XEDIT
290
1
  9
$CEPSNTYPE
380
0
  9
$PSTYLEMODE
290
1
  9
$FINGERPRINTGUID
  2
{D3B2114C-7DE8-4846-A565-894C08BBEE91}
  9
$VERSIONGUID
  2
{41C2F0BD-32B4-4E8E-B05F-79A243785D12}
  9
$EXTNAMES
290
1
  9
$PSVPSCALE
 40
0.0
  9
$OLESTARTUP
290
0
  9
$SORTENTS
280
127
  9
$INDEXCTL
280
0
  9
$HIDETEXT
280
1
  9
$XCLIPFRAME
280
1
  9
$HALOGAP
280
0
  9
$OBSCOLOR
 70
257
  9
$OBSLTYPE
280
0
  9
$INTERSECTIONDISPLAY
280
0
  9
$INTERSECTIONCOLOR
 70
257
  9
$DIMASSOC
280
2
  9
$PROJECTNAME
  1

  9
$CAMERADISPLAY
290
0
  9
$LENSLENGTH
 40
50.0
  9
$CAMERAHEIGHT
 40
0.0
  9
$STEPSPERSEC
 40
24.0
  9
$STEPSIZE
 40
100.0
  9
$3DDWFPREC
 40
2.0
  9
$PSOLWIDTH
 40
0.005
  9
$PSOLHEIGHT
 40
0.08
  9
$LOFTANG1
 40
1.570796326795
  9
$LOFTANG2
 40
1.570796326795
  9
$LOFTMAG1
 40
0.0
  9
$LOFTMAG2
 40
0.0
  9
$LOFTPARAM
 70
7
  9
$LOFTNORMALS
280
1
  9
$LATITUDE
 40
37.795
  9
$LONGITUDE
 40
-122.394
  9
$NORTHDIRECTION
 40
0.0
  9
$TIMEZONE
 70
-8000
  9
$LIGHTGLYPHDISPLAY
280
1
  9
$TILEMODELIGHTSYNCH
280
1
  9
$CMATERIAL
347
20
  9
$SOLIDHIST
280
0
  9
$SHOWHIST
280
1
  9
$DWFFRAME
280
2
  9
$DGNFRAME
280
2
  9
$REALWORLDSCALE
290
1
  9
$INTERFERECOLOR
 62
256
  9
$CSHADOW
280
0
  9
$SHADOWPLANELOCATION
 40
0.0
  0
ENDSEC
  0
SECTION
  2
CLASSES
  0
CLASS
  1
ACDBDICTIONARYWDFLT
  2
AcDbDictionaryWithDefault
  3
ObjectDBX Classes
 90
0
 91
0
280
0
281
0
  0
CLASS
  1
SUN
  2
AcDbSun
  3
SCENEOE
 90
1153
 91
0
280
0
281
0
  0
CLASS
  1
VISUALSTYLE
  2
AcDbVisualStyle
  3
ObjectDBX Classes
 90
4095
 91
0
280
0
281
0
  0
CLASS
  1
MATERIAL
  2
AcDbMaterial
  3
ObjectDBX Classes
 90
1153
 91
0
280
0
281
0
  0
CLASS
  1
SCALE
  2
AcDbScale
  3
ObjectDBX Classes
 90
1153
 91
0
280
0
281
0
  0
CLASS
  1
TABLESTYLE
  2
AcDbTableStyle
  3
ObjectDBX Classes
 90
4095
 91
0
280
0
281
0
  0
CLASS
  1
MLEADERSTYLE
  2
AcDbMLeaderStyle
  3
ACDB_MLEADERSTYLE_CLASS
 90
4095
 91
0
280
0
281
0
  0
CLASS
  1
DICTIONARYVAR
  2
AcDbDictionaryVar
  3
ObjectDBX Classes
 90
0
 91
0
280
0
281
0
  0
CLASS
  1
CELLSTYLEMAP
  2
AcDbCellStyleMap
  3
ObjectDBX Classes
 90
1152
 91
0
280
0
281
0
  0
CLASS
  1
MENTALRAYRENDERSETTINGS
  2
AcDbMentalRayRenderSettings
  3
SCENEOE
 90
1024
 91
0
280
0
281
0
  0
CLASS
  1
ACDBDETAILVIEWSTYLE
  2
AcDbDetailViewStyle
  3
ObjectDBX Classes
 90
1025
 91
0
280
0
281
0
  0
CLASS
  1
ACDBSECTIONVIEWSTYLE
  2
AcDbSectionViewStyle
  3
ObjectDBX Classes
 90
1025
 91
0
280
0
281
0
  0
CLASS
  1
RASTERVARIABLES
  2
AcDbRasterVariables
  3
ISM
 90
0
 91
0
280
0
281
0
  0
CLASS
  1
LAYOUT
  2
AcDbLayout
  3
ObjectDBX Classes
 90
0
 91
0
280
0
281
0
  0
CLASS
  1
ACDBPLACEHOLDER
  2
AcDbPlaceHolder
  3
ObjectDBX Classes
 90
0
 91
0
280
0
281
0
  0
ENDSEC
  0
SECTION
  2
TABLES
  0
TABLE
  2
VPORT
  5
8
330
0
100
AcDbSymbolTable
 70
1
  0
VPORT
  5
23
330
8
100
AcDbSymbolTableRecord
100
AcDbViewportTableRecord
  2
*Active
 70
0
 10
0.0
 20
0.0
 11
1.0
 21
1.0
 12
0.0
 22
0.0
 13
0.0
 23
0.0
 14
0.5
 24
0.5
 15
0.5
 25
0.5
 16
0.0
 26
0.0
 36
1.0
 17
0.0
 27
0.0
 37
0.0
 40
1000.0
 41
1.34
 42
50.0
 43
0.0
 44
0.0
 50
0.0
 51
0.0
 71
0
 72
1000
 73
1
 74
3
 75
0
 76
0
 77
0
 78
0
281
0
 65
0
146
0.0
  0
ENDTAB
  0
TABLE
  2
LTYPE
  5
2
330
0
100
AcDbSymbolTable
 70
3
  0
LTYPE
  5
24
330
2
100
AcDbSymbolTableRecord
100
AcDbLinetypeTableRecord
  2
ByBlock
 70
0
  3

 72
65
 73
0
 40
0.0
  0
LTYPE
  5
25
330
2
100
AcDbSymbolTableRecord
100
AcDbLinetypeTableRecord
  2
ByLayer
 70
0
  3

 72
65
 73
0
 40
0.0
  0
LTYPE
  5
26
330
2
100
AcDbSymbolTableRecord
100
AcDbLinetypeTableRecord
  2
Continuous
 70
0
  3

 72
65
 73
0
 40
0.0
  0
ENDTAB
  0
TABLE
  2
LAYER
  5
1
330
0
100
AcDbSymbolTable
 70
2
  0
LAYER
  5
27
330
1
100
AcDbSymbolTableRecord
100
AcDbLayerTableRecord
  2
0
 70
0
 62
7
  6
Continuous
370
-3
390
13
347
21
  0
LAYER
  5
28
330
1
100
AcDbSymbolTableRecord
100
AcDbLayerTableRecord
  2
Defpoints
 70
0
 62
7
  6
Continuous
290
0
370
-3
390
13
347
21
  0
ENDTAB
  0
TABLE
  2
STYLE
  5
5
330
0
100
AcDbSymbolTable
 70
1
  0
STYLE
  5
29
330
5
100
AcDbSymbolTableRecord
100
AcDbTextStyleTableRecord
  2
Standard
 70
0
 40
0.0
 41
1.0
 50
0.0
 71
0
 42
2.5
  3
txt
  4

  0
ENDTAB
  0
TABLE
  2
VIEW
  5
7
330
0
100
AcDbSymbolTable
 70
0
  0
ENDTAB
  0
TABLE
  2
UCS
  5
6
330
0
100
AcDbSymbolTable
 70
0
  0
ENDTAB
  0
TABLE
  2
APPID
  5
3
330
0
100
AcDbSymbolTable
 70
3
  0
APPID
  5
2A
330
3
100
AcDbSymbolTableRecord
100
AcDbRegAppTableRecord
  2
ACAD
 70
0
  0
APPID
  5
28B
330
3
100
AcDbSymbolTableRecord
100
AcDbRegAppTableRecord
  2
HATCHBACKGROUNDCOLOR
 70
0
  0
APPID
  5
28C
330
3
100
AcDbSymbolTableRecord
100
AcDbRegAppTableRecord
  2
EZDXF
 70
0
  0
ENDTAB
  0
TABLE
  2
DIMSTYLE
  5
4
330
0
100
AcDbSymbolTable
 70
1
100
AcDbDimStyleTable
  0
DIMSTYLE
105
2B
330
4
100
AcDbSymbolTableRecord
100
AcDbDimStyleTableRecord
  2
Standard
 70
0
 40
1.0
 41
2.5
 42
0.625
 43
3.75
 44
1.25
 45
0.0
 46
0.0
 47
0.0
 48
0.0
 49
2.5
140
2.5
141
2.5
142
0.0
143
0.03937007874
144
1.0
145
0.0
146
1.0
147
0.625
148
0.0
 69
0
 70
0
 71
0
 72
0
 73
0
 74
0
 75
0
 76
0
 77
1
 78
8
 79
3
170
0
171
3
172
1
173
0
174
0
175
0
176
0
177
0
178
0
179
2
271
2
272
2
273
2
274
3
275
0
276
0
277
2
278
44
279
0
280
0
281
0
282
0
283
0
284
8
285
0
286
0
288
0
289
3
290
0
371
-2
372
-2
  0
ENDTAB
  0
TABLE
  2
BLOCK_RECORD
  5
9
330
0
100
AcDbSymbolTable
 70
2
  0
BLOCK_RECORD
  5
17
330
9
100
AcDbSymbolTableRecord
100
AcDbBlockTableRecord
  2
*Model_Space
340
1A
 70
0
280
1
281
0
  0
BLOCK_RECORD
  5
1B
330
9
100
AcDbSymbolTableRecord
100
AcDbBlockTableRecord
  2
*Paper_Space
340
1E
 70
0
280
1
281
0
  0
ENDTAB
  0
ENDSEC
  0
SECTION
  2
BLOCKS
  0
BLOCK
  5
18
330
17
100
AcDbEntity
  8
0
100
AcDbBlockBegin
  2
*Model_Space
 70
0
 10
0.0
 20
0.0
 30
0.0
  3
*Model_Space
  1

  0
ENDBLK
  5
19
330
17
100
AcDbEntity
  8
0
100
AcDbBlockEnd
  0
BLOCK
  5
1C
330
1B
100
AcDbEntity
  8
0
100
AcDbBlockBegin
  2
*Paper_Space
 70
0
 10
0.0
 20
0.0
 30
0.0
  3
*Paper_Space
  1

  0
ENDBLK
  5
1D
330
1B
100
AcDbEntity
  8
0
100
AcDbBlockEnd
  0
ENDSEC
  0
SECTION
  2
ENTITIES
  0
LWPOLYLINE
  5
2F
330
17
100
AcDbEntity
  8
0
100
AcDbPolyline
 90
2
 70
0
 10
2511.213794
 20
173.540648
 10
2640.213794
 20
173.540648
  0
LWPOLYLINE
  5
30
330
17
100
AcDbEntity
  8
0
100
AcDbPolyline
 90
2
 70
0
 10
2637.713794
 20
180.540648
 10
2576.910316
 20
180.540648
  0
LWPOLYLINE
  5
31
330
17
100
AcDbEntity
  8
0
100
AcDbPolyline
 90
2
 70
0
 10
2511.213794
 20
176.040648
 10
2573.213794
 20
176.040648
  0
LWPOLYLINE
  5
32
330
17
100
AcDbEntity
  8
0
100
AcDbPolyline
 90
2
 70
0
 10
2578.213794
 20
176.040648
 10
2637.713794
 20
176.040648
  0
LWPOLYLINE
  5
33
330
17
100
AcDbEntity
  8
0
100
AcDbPolyline
 90
5
 70
0
 10
2505.713794
 20
178.540648
 10
2505.713794
 20
173.540648
 10
2511.213794
 20
173.540648
 10
2511.213794
 20
178.540648
 10
2505.713794
 20
178.540648
  0
LWPOLYLINE
  5
34
330
17
100
AcDbEntity
  8
0
100
AcDbPolyline
 90
5
 70
0
 10
2642.187676
 20
178.540648
 10
2641.517272
 20
180.540648
 10
2637.713794
 20
180.540648
 10
2637.713794
 20
176.040648
 10
2640.213794
 20
176.040648
  0
LWPOLYLINE
  5
35
330
17
100
AcDbEntity
  8
0
100
AcDbPolyline
 90
5
 70
0
 10
2645.713794
 20
178.540648
 10
2645.713794
 20
173.540648
 10
2640.213794
 20
173.540648
 10
2640.213794
 20
178.540648
 10
2645.713794
 20
178.540648
  0
LINE
  5
36
330
17
100
AcDbEntity
  8
0
100
AcDbLine
 10
2576.910316
 20
180.540648
 30
0.0
 11
2580.713794
 21
180.540648
 31
0.0
  0
LINE
  5
37
330
17
100
AcDbEntity
  8
0
100
AcDbLine
 10
2576.239912
 20
178.540648
 30
0.0
 11
2576.910316
 21
180.540648
 31
0.0
  0
LINE
  5
38
330
17
100
AcDbEntity
  8
0
100
AcDbLine
 10
2578.213794
 20
176.040648
 30
0.0
 11
2580.713794
 21
176.040648
 31
0.0
  0
LINE
  5
39
330
17
100
AcDbEntity
  8
0
100
AcDbLine
 10
2580.713794
 20
176.040648
 30
0.0
 11
2580.713794
 21
180.540648
 31
0.0
  0
LINE
  5
3A
330
17
100
AcDbEntity
  8
0
100
AcDbLine
 10
2573.213794
 20
173.540648
 30
0.0
 11
2578.213794
 21
173.540648
 31
0.0
  0
LINE
  5
3B
330
17
100
AcDbEntity
  8
0
100
AcDbLine
 10
2578.213794
 20
178.540648
 30
0.0
 11
2578.213794
 21
173.540648
 31
0.0
  0
LINE
  5
3C
330
17
100
AcDbEntity
  8
0
100
AcDbLine
 10
2573.213794
 20
178.540648
 30
0.0
 11
2573.213794
 21
173.540648
 31
0.0
  0
LINE
  5
3D
330
17
100
AcDbEntity
  8
0
100
AcDbLine
 10
2573.213794
 20
178.540648
 30
0.0
 11
2578.213794
 21
178.540648
 31
0.0
  0
LINE
  5
3E
330
17
100
AcDbEntity
  8
0
100
AcDbLine
 10
2573.213794
 20
176.040648
 30
0.0
 11
2570.713794
 21
176.040648
 31
0.0
  0
LWPOLYLINE
  5
3F
330
17
100
AcDbEntity
  8
0
100
AcDbPolyline
 90
4
 70
0
 10
2645.713794
 20
188.540648
 10
2645.713794
 20
191.040648
 10
2505.713794
 20
191.040648
 10
2505.713794
 20
188.540648
  0
LWPOLYLINE
  5
40
330
17
100
AcDbEntity
  8
0
100
AcDbPolyline
 90
4
 70
0
 10
2645.713794
 20
163.540648
 10
2645.713794
 20
161.040648
 10
2505.713794
 20
161.040648
 10
2505.713794
 20
163.540648
  0
LWPOLYLINE
  5
41
330
17
100
AcDbEntity
  8
0
100
AcDbPolyline
 90
2
 70
0
 10
2511.213794
 20
178.540648
 10
2573.213794
 20
178.540648
  0
LINE
  5
42
330
17
100
AcDbEntity
  8
0
100
AcDbLine
 10
2573.213794
 20
178.540648
 30
0.0
 11
2570.713794
 21
178.540648
 31
0.0
  0
LWPOLYLINE
  5
43
330
17
100
AcDbEntity
  8
0
100
AcDbPolyline
 90
5
 70
0
 10
1710.685721
 20
576.040648
 10
1705.685721
 20
576.040648
 10
1705.685721
 20
571.040648
 10
1710.685721
 20
571.040648
 10
1710.685721
 20
576.040648
  0
LWPOLYLINE
  5
44
330
17
100
AcDbEntity
  8
0
100
AcDbPolyline
 90
5
 70
0
 10
1663.185721
 20
576.040648
 10
1658.185721
 20
576.040648
 10
1658.185721
 20
571.040648
 10
1663.185721
 20
571.040648
 10
1663.185721
 20
576.040648
  0
LINE
  5
45
330
17
100
AcDbEntity
  8
0
100
AcDbLine
 10
1663.185721
 20
576.040648
 30
0.0
 11
1705.685721
 21
576.040648
 31
0.0
  0
LINE
  5
46
330
17
100
AcDbEntity
  8
0
100
AcDbLine
 10
1663.185721
 20
571.040648
 30
0.0
 11
1705.685721
 21
571.040648
 31
0.0
  0
LINE
  5
47
330
17
100
AcDbEntity
  8
0
100
AcDbLine
 10
1663.185721
 20
573.540648
 30
0.0
 11
1705.685721
 21
573.540648
 31
0.0
  0
LWPOLYLINE
  5
48
330
17
100
AcDbEntity
  8
0
100
AcDbPolyline
 90
5
 70
0
 10
1592.185721
 20
581.040648
 10
1597.185721
 20
581.040648
 10
1597.185721
 20
576.040648
 10
1592.185721
 20
576.040648
 10
1592.185721
 20
581.040648
  0
LWPOLYLINE
  5
49
330
17
100
AcDbEntity
  8
0
100
AcDbPolyline
 90
5
 70
0
 10
1655.685721
 20
581.040648
 10
1660.685721
 20
581.040648
 10
1660.685721
 20
576.040648
 10
1655.685721
 20
576.040648
 10
1655.685721
 20
581.040648
  0
LINE
  5
4A
330
17
100
AcDbEntity
  8
0
100
AcDbLine
 10
1655.685721
 20
581.040648
 30
0.0
 11
1597.185721
 21
581.040648
 31
0.0
  0
LINE
  5
4B
330
17
100
AcDbEntity
  8
0
100
AcDbLine
 10
1655.685721
 20
576.040648
 30
0.0
 11
1597.185721
 21
576.040648
 31
0.0
  0
LINE
  5
4C
330
17
100
AcDbEntity
  8
0
100
AcDbLine
 10
1655.685721
 20
578.540648
 30
0.0
 11
1597.185721
 21
578.540648
 31
0.0
  0
LWPOLYLINE
  5
4D
330
17
100
AcDbEntity
  8
0
100
AcDbPolyline
 90
5
 70
0
 10
1518.185721
 20
576.040648
 10
1523.185721
 20
576.040648
 10
1523.185721
 20
571.040648
 10
1518.185721
 20
571.040648
 10
1518.185721
 20
576.040648
  0
LINE
  5
4E
330
17
100
AcDbEntity
  8
0
100
AcDbLine
 10
1518.185721
 20
576.040648
 30
0.0
 11
1475.685721
 21
576.040648
 31
0.0
  0
LINE
  5
4F
330
17
100
AcDbEntity
  8
0
100
AcDbLine
 10
1518.185721
 20
571.040648
 30
0.0
 11
1475.685721
 21
571.040648
 31
0.0
  0
LINE
  5
50
330
17
100
AcDbEntity
  8
0
100
AcDbLine
 10
1518.185721
 20
573.540648
 30
0.0
 11
1475.685721
 21
573.540648
 31
0.0
  0
LWPOLYLINE
  5
51
330
17
100
AcDbEntity
  8
0
100
AcDbPolyline
 90
5
 70
0
 10
1589.185721
 20
581.040648
 10
1584.185721
 20
581.040648
 10
1584.185721
 20
576.040648
 10
1589.185721
 20
576.040648
 10
1589.185721
 20
581.040648
  0
LWPOLYLINE
  5
52
330
17
100
AcDbEntity
  8
0
100
AcDbPolyline
 90
5
 70
0
 10
1525.685721
 20
581.040648
 10
1520.685721
 20
581.040648
 10
1520.685721
 20
576.040648
 10
1525.685721
 20
576.040648
 10
1525.685721
 20
581.040648
  0
LINE
  5
53
330
17
100
AcDbEntity
  8
0
100
AcDbLine
 10
1525.685721
 20
581.040648
 30
0.0
 11
1584.185721
 21
581.040648
 31
0.0
  0
LINE
  5
54
330
17
100
AcDbEntity
  8
0
100
AcDbLine
 10
1525.685721
 20
576.040648
 30
0.0
 11
1584.185721
 21
576.040648
 31
0.0
  0
LINE
  5
55
330
17
100
AcDbEntity
  8
0
100
AcDbLine
 10
1525.685721
 20
578.540648
 30
0.0
 11
1584.185721
 21
578.540648
 31
0.0
  0
LWPOLYLINE
  5
56
330
17
100
AcDbEntity
  8
0
100
AcDbPolyline
 90
5
 70
0
 10
1475.685605
 20
576.040648
 10
1475.685721
 20
576.040648
 10
1475.685721
 20
571.040648
 10
1475.685605
 20
571.040648
 10
1475.685605
 20
576.040648
  0
LWPOLYLINE
  5
57
330
17
100
AcDbEntity
  8
0
100
AcDbPolyline
 90
2
 70
0
 10
1531.185721
 20
1218.540648
 10
1650.185721
 20
1218.540648
  0
LWPOLYLINE
  5
58
330
17
100
AcDbEntity
  8
0
100
AcDbPolyline
 90
2
 70
0
 10
1647.685721
 20
1211.540648
 10
1591.882243
 20
1211.540648
  0
LWPOLYLINE
  5
59
330
17
100
AcDbEntity
  8
0
100
AcDbPolyline
 90
2
 70
0
 10
1531.185721
 20
1216.040648
 10
1588.185721
 20
1216.040648
  0
LWPOLYLINE
  5
5A
330
17
100
AcDbEntity
  8
0
100
AcDbPolyline
 90
2
 70
0
 10
1593.185721
 20
1216.040648
 10
1647.685721
 20
1216.040648
  0
LWPOLYLINE
  5
5B
330
17
100
AcDbEntity
  8
0
100
AcDbPolyline
 90
5
 70
0
 10
1525.685721
 20
1213.540648
 10
1525.685721
 20
1218.540648
 10
1531.185721
 20
1218.540648
 10
1531.185721
 20
1213.540648
 10
1525.685721
 20
1213.540648
  0
LWPOLYLINE
  5
5C
330
17
100
AcDbEntity
  8
0
100
AcDbPolyline
 90
5
 70
0
 10
1652.159603
 20
1213.540648
 10
1651.489199
 20
1211.540648
 10
1647.685721
 20
1211.540648
 10
1647.685721
 20
1216.040648
 10
1650.185721
 20
1216.040648
  0
LWPOLYLINE
  5
5D
330
17
100
AcDbEntity
  8
0
100
AcDbPolyline
 90
5
 70
0
 10
1655.685721
 20
1213.540648
 10
1655.685721
 20
1218.540648
 10
1650.185721
 20
1218.540648
 10
1650.185721
 20
1213.540648
 10
1655.685721
 20
1213.540648
  0
LINE
  5
5E
330
17
100
AcDbEntity
  8
0
100
AcDbLine
 10
1591.882243
 20
1211.540648
 30
0.0
 11
1595.685721
 21
1211.540648
 31
0.0
  0
LINE
  5
5F
330
17
100
AcDbEntity
  8
0
100
AcDbLine
 10
1591.211839
 20
1213.540648
 30
0.0
 11
1591.882243
 21
1211.540648
 31
0.0
  0
LINE
  5
60
330
17
100
AcDbEntity
  8
0
100
AcDbLine
 10
1593.185721
 20
1216.040648
 30
0.0
 11
1595.685721
 21
1216.040648
 31
0.0
  0
LINE
  5
61
330
17
100
AcDbEntity
  8
0
100
AcDbLine
 10
1595.685721
 20
1216.040648
 30
0.0
 11
1595.685721
 21
1211.540648
 31
0.0
  0
LINE
  5
62
330
17
100
AcDbEntity
  8
0
100
AcDbLine
 10
1588.185721
 20
1218.540648
 30
0.0
 11
1593.185721
 21
1218.540648
 31
0.0
  0
LINE
  5
63
330
17
100
AcDbEntity
  8
0
100
AcDbLine
 10
1593.185721
 20
1213.540648
 30
0.0
 11
1593.185721
 21
1218.540648
 31
0.0
  0
LINE
  5
64
330
17
100
AcDbEntity
  8
0
100
AcDbLine
 10
1588.185721
 20
1213.540648
 30
0.0
 11
1588.185721
 21
1218.540648
 31
0.0
  0
LINE
  5
65
330
17
100
AcDbEntity
  8
0
100
AcDbLine
 10
1588.185721
 20
1213.540648
 30
0.0
 11
1593.185721
 21
1213.540648
 31
0.0
  0
LINE
  5
66
330
17
100
AcDbEntity
  8
0
100
AcDbLine
 10
1588.185721
 20
1216.040648
 30
0.0
 11
1585.685721
 21
1216.040648
 31
0.0
  0
LWPOLYLINE
  5
67
330
17
100
AcDbEntity
  8
0
100
AcDbPolyline
 90
4
 70
0
 10
1655.685721
 20
1203.540648
 10
1655.685721
 20
1201.040648
 10
1525.685721
 20
1201.040648
 10
1525.685721
 20
1203.540648
  0
LWPOLYLINE
  5
68
330
17
100
AcDbEntity
  8
0
100
AcDbPolyline
 90
4
 70
0
 10
1655.685721
 20
1228.540648
 10
1655.685721
 20
1231.040648
 10
1525.685721
 20
1231.040648
 10
1525.685721
 20
1228.540648
  0
LWPOLYLINE
  5
69
330
17
100
AcDbEntity
  8
0
100
AcDbPolyline
 90
2
 70
0
 10
1531.185721
 20
1213.540648
 10
1588.185721
 20
1213.540648
  0
LINE
  5
6A
330
17
100
AcDbEntity
  8
0
100
AcDbLine
 10
1588.185721
 20
1213.540648
 30
0.0
 11
1585.685721
 21
1213.540648
 31
0.0
  0
LWPOLYLINE
  5
6B
330
17
100
AcDbEntity
  8
0
100
AcDbPolyline
 90
5
 70
0
 10
692.131531
 20
178.540648
 10
691.461126
 20
180.540648
 10
687.657649
 20
180.540648
 10
687.657649
 20
176.040648
 10
690.157649
 20
176.040648
  0
LWPOLYLINE
  5
6C
330
17
100
AcDbEntity
  8
0
100
AcDbPolyline
 90
5
 70
0
 10
695.657649
 20
178.540648
 10
695.657649
 20
173.540648
 10
690.157649
 20
173.540648
 10
690.157649
 20
178.540648
 10
695.657649
 20
178.540648
  0
LWPOLYLINE
  5
6D
330
17
100
AcDbEntity
  8
0
100
AcDbPolyline
 90
4
 70
0
 10
318.185721
 20
1156.040648
 10
320.685721
 20
1156.040648
 10
320.685721
 20
1136.040648
 10
318.185721
 20
1136.040648
  0
LWPOLYLINE
  5
6E
330
17
100
AcDbEntity
  8
0
100
AcDbPolyline
 90
4
 70
0
 10
1595.685721
 20
861.040648
 10
1585.685721
 20
861.040648
 10
1585.685721
 20
1085.040648
 10
1595.685721
 20
1085.040648
  0
LINE
  5
6F
330
17
100
AcDbEntity
  8
0
100
AcDbLine
 10
1710.685721
 20
858.040648
 30
0.0
 11
1658.685721
 21
858.040648
 31
0.0
  0
LINE
  5
70
330
17
100
AcDbEntity
  8
0
100
AcDbLine
 10
1652.685721
 20
858.040648
 30
0.0
 11
1599.685721
 21
858.040648
 31
0.0
  0
LINE
  5
71
330
17
100
AcDbEntity
  8
0
100
AcDbLine
 10
1581.685721
 20
864.040648
 30
0.0
 11
1470.685721
 21
864.040648
 31
0.0
  0
LWPOLYLINE
  5
72
330
17
100
AcDbEntity
  8
0
100
AcDbPolyline
 90
4
 70
0
 10
1595.685721
 20
861.040648
 10
1585.685721
 20
861.040648
 10
1585.685721
 20
1085.040648
 10
1595.685721
 20
1085.040648
  0
LWPOLYLINE
  5
73
330
17
100
AcDbEntity
  8
0
100
AcDbPolyline
 90
2
 70
0
 10
1525.685721
 20
860.040648
 10
1525.685721
 20
1038.01837
  0
LWPOLYLINE
  5
74
330
17
100
AcDbEntity
  8
0
100
AcDbPolyline
 90
4
 70
0
 10
1525.685721
 20
1060.040648
 10
1525.685721
 20
1132.040648
 10
1655.685721
 20
1132.040648
 10
1655.685721
 20
861.040648
  0
LWPOLYLINE
  5
75
330
17
100
AcDbEntity
  8
0
100
AcDbPolyline
 90
6
 70
0
 10
1581.685721
 20
1057.040648
 10
1581.685721
 20
1089.040648
 10
1599.685721
 20
1089.040648
 10
1599.685721
 20
857.040648
 10
1581.685721
 20
857.040648
 10
1581.685721
 20
1053.023525
  0
LWPOLYLINE
  5
76
330
17
100
AcDbEntity
  8
0
100
AcDbPolyline
 90
3
 70
0
 10
1525.685721
 20
848.740648
 10
1540.985721
 20
864.040648
 10
1510.385721
 20
864.040648
  0
LINE
  5
77
330
17
100
AcDbEntity
  8
0
100
AcDbLine
 10
1708.185721
 20
886.040648
 30
0.0
 11
1599.685721
 21
886.040648
 31
0.0
  0
LINE
  5
78
330
17
100
AcDbEntity
  8
0
100
AcDbLine
 10
1581.685721
 20
892.040648
 30
0.0
 11
1470.685721
 21
892.040648
 31
0.0
  0
LINE
  5
79
330
17
100
AcDbEntity
  8
0
100
AcDbLine
 10
1708.185721
 20
914.040648
 30
0.0
 11
1599.685721
 21
914.040648
 31
0.0
  0
LINE
  5
7A
330
17
100
AcDbEntity
  8
0
100
AcDbLine
 10
1581.685721
 20
920.040648
 30
0.0
 11
1473.185721
 21
920.040648
 31
0.0
  0
LINE
  5
7B
330
17
100
AcDbEntity
  8
0
100
AcDbLine
 10
1713.185721
 20
942.040648
 30
0.0
 11
1599.685721
 21
942.040648
 31
0.0
  0
LINE
  5
7C
330
17
100
AcDbEntity
  8
0
100
AcDbLine
 10
1581.685721
 20
948.040648
 30
0.0
 11
1468.185721
 21
948.040648
 31
0.0
  0
LINE
  5
7D
330
17
100
AcDbEntity
  8
0
100
AcDbLine
 10
1713.185721
 20
970.040648
 30
0.0
 11
1599.685721
 21
970.040648
 31
0.0
  0
LINE
  5
7E
330
17
100
AcDbEntity
  8
0
100
AcDbLine
 10
1581.685721
 20
976.040648
 30
0.0
 11
1468.185721
 21
976.040648
 31
0.0
  0
LINE
  5
7F
330
17
100
AcDbEntity
  8
0
100
AcDbLine
 10
1713.185721
 20
998.040648
 30
0.0
 11
1599.685721
 21
998.040648
 31
0.0
  0
LINE
  5
80
330
17
100
AcDbEntity
  8
0
100
AcDbLine
 10
1581.685721
 20
1004.040648
 30
0.0
 11
1468.185721
 21
1004.040648
 31
0.0
  0
LINE
  5
81
330
17
100
AcDbEntity
  8
0
100
AcDbLine
 10
1713.185721
 20
1026.040648
 30
0.0
 11
1599.685721
 21
1026.040648
 31
0.0
  0
LINE
  5
82
330
17
100
AcDbEntity
  8
0
100
AcDbLine
 10
1581.685721
 20
1032.040648
 30
0.0
 11
1503.376558
 21
1032.040648
 31
0.0
  0
LINE
  5
83
330
17
100
AcDbEntity
  8
0
100
AcDbLine
 10
1487.921745
 20
1032.040648
 30
0.0
 11
1468.185721
 21
1032.040648
 31
0.0
  0
LINE
  5
84
330
17
100
AcDbEntity
  8
0
100
AcDbLine
 10
1713.185721
 20
1054.040648
 30
0.0
 11
1599.685721
 21
1054.040648
 31
0.0
  0
LINE
  5
85
330
17
100
AcDbEntity
  8
0
100
AcDbLine
 10
1581.685721
 20
1060.040648
 30
0.0
 11
1468.185721
 21
1060.040648
 31
0.0
  0
LINE
  5
86
330
17
100
AcDbEntity
  8
0
100
AcDbLine
 10
1713.185721
 20
1082.040648
 30
0.0
 11
1599.685721
 21
1082.040648
 31
0.0
  0
LINE
  5
87
330
17
100
AcDbEntity
  8
0
100
AcDbLine
 10
1581.685721
 20
1088.040648
 30
0.0
 11
1468.185721
 21
1088.040648
 31
0.0
  0
CIRCLE
  5
88
330
17
100
AcDbEntity
  8
0
100
AcDbCircle
 10
1655.685721
 20
858.040648
 30
0.0
 40
3.0
  0
LINE
  5
89
330
17
100
AcDbEntity
  8
0
100
AcDbLine
 10
1468.185721
 20
1026.752397
 30
0.0
 11
1585.685721
 21
1058.236427
 31
0.0
  0
LWPOLYLINE
  5
8A
330
17
100
AcDbEntity
  8
0
100
AcDbPolyline
 90
3
 70
0
 10
1525.685721
 20
1044.740648
 10
1540.985721
 20
1060.040648
 10
1510.385721
 20
1060.040648
  0
TEXT
  5
8B
330
17
100
AcDbEntity
  8
0
100
AcDbText
 10
2817.915761
 20
1161.762198
 30
0.0
 40
2.5
  1
kombi
100
AcDbText
  0
LINE
  5
8C
330
17
100
AcDbEntity
  8
0
100
AcDbLine
 10
2830.981834
 20
1329.722781
 30
0.0
 11
2830.981834
 21
1334.992426
 31
0.0
  0
LINE
  5
8D
330
17
100
AcDbEntity
  8
0
100
AcDbLine
 10
2840.581834
 20
1329.722781
 30
0.0
 11
2840.581834
 21
1334.992426
 31
0.0
  0
LINE
  5
8E
330
17
100
AcDbEntity
  8
0
100
AcDbLine
 10
2831.481834
 20
1329.722781
 30
0.0
 11
2831.481834
 21
1334.992426
 31
0.0
  0
LINE
  5
8F
330
17
100
AcDbEntity
  8
0
100
AcDbLine
 10
2840.081834
 20
1329.722781
 30
0.0
 11
2840.081834
 21
1334.992426
 31
0.0
  0
LINE
  5
90
330
17
100
AcDbEntity
  8
0
100
AcDbLine
 10
2832.481834
 20
1329.722781
 30
0.0
 11
2832.481834
 21
1334.992426
 31
0.0
  0
LINE
  5
91
330
17
100
AcDbEntity
  8
0
100
AcDbLine
 10
2839.081834
 20
1329.722781
 30
0.0
 11
2839.081834
 21
1334.992426
 31
0.0
  0
LINE
  5
92
330
17
100
AcDbEntity
  8
0
100
AcDbLine
 10
2833.781834
 20
1329.722781
 30
0.0
 11
2833.781834
 21
1334.992426
 31
0.0
  0
LINE
  5
93
330
17
100
AcDbEntity
  8
0
100
AcDbLine
 10
2837.781834
 20
1329.722781
 30
0.0
 11
2837.781834
 21
1334.992426
 31
0.0
  0
LINE
  5
94
330
17
100
AcDbEntity
  8
0
100
AcDbLine
 10
2835.781834
 20
1334.992426
 30
0.0
 11
2835.781834
 21
1329.722781
 31
0.0
  0
LINE
  5
95
330
17
100
AcDbEntity
  8
0
100
AcDbLine
 10
2841.281834
 20
1329.722781
 30
0.0
 11
2830.281834
 21
1329.722781
 31
0.0
  0
LINE
  5
96
330
17
100
AcDbEntity
  8
0
100
AcDbLine
 10
2841.281834
 20
1327.722781
 30
0.0
 11
2841.281834
 21
1329.722781
 31
0.0
  0
LINE
  5
97
330
17
100
AcDbEntity
  8
0
100
AcDbLine
 10
2830.281834
 20
1327.722781
 30
0.0
 11
2841.281834
 21
1327.722781
 31
0.0
  0
LINE
  5
98
330
17
100
AcDbEntity
  8
0
100
AcDbLine
 10
2830.281834
 20
1329.722781
 30
0.0
 11
2830.281834
 21
1327.722781
 31
0.0
  0
LWPOLYLINE
  5
99
330
17
100
AcDbEntity
  8
0
100
AcDbPolyline
 90
10
 70
0
 10
2830.281834
 20
1190.5388
 10
2820.281834
 20
1190.5388
 42
0.414214
 10
2815.281834
 20
1185.5388
 10
2815.281834
 20
1160.5388
 42
0.414214
 10
2817.281834
 20
1158.5388
 10
2854.281834
 20
1158.5388
 42
0.414214
 10
2856.281834
 20
1160.5388
 10
2856.281834
 20
1185.5388
 42
0.414214
 10
2851.281834
 20
1190.5388
 10
2841.281834
 20
1190.5388
  0
LWPOLYLINE
  5
9A
330
17
100
AcDbEntity
  8
0
100
AcDbPolyline
 90
4
 70
0
 10
2841.281834
 20
1327.722781
 10
2830.281834
 20
1327.722781
 10
2830.281834
 20
1329.722781
 10
2841.281834
 20
1329.722781
  0
LWPOLYLINE
  5
9B
330
17
100
AcDbEntity
  8
0
100
AcDbPolyline
 90
4
 70
0
 10
2841.281834
 20
1179.415168
 42
-1.0
 10
2830.281834
 20
1179.415168
 10
2830.281834
 20
1327.722781
 10
2841.281834
 20
1327.722781
  0
LWPOLYLINE
  5
9C
330
17
100
AcDbEntity
  8
0
100
AcDbPolyline
 90
4
 70
0
 10
2830.781834
 20
1329.722781
 10
2830.781834
 20
1334.992426
 10
2840.781834
 20
1334.992426
 10
2840.781834
 20
1329.722781
  0
TEXT
  5
9D
330
17
100
AcDbEntity
  8
0
100
AcDbText
 10
2816.512753
 20
281.185944
 30
0.0
 40
2.5
  1
kombi
100
AcDbText
  0
LINE
  5
9E
330
17
100
AcDbEntity
  8
0
100
AcDbLine
 10
2840.527376
 20
122.357014
 30
0.0
 11
2840.527376
 21
117.087369
 31
0.0
  0
LINE
  5
9F
330
17
100
AcDbEntity
  8
0
100
AcDbLine
 10
2830.927376
 20
122.357014
 30
0.0
 11
2830.927376
 21
117.087369
 31
0.0
  0
LINE
  5
A0
330
17
100
AcDbEntity
  8
0
100
AcDbLine
 10
2840.027376
 20
122.357014
 30
0.0
 11
2840.027376
 21
117.087369
 31
0.0
  0
LINE
  5
A1
330
17
100
AcDbEntity
  8
0
100
AcDbLine
 10
2831.427376
 20
122.357014
 30
0.0
 11
2831.427376
 21
117.087369
 31
0.0
  0
LINE
  5
A2
330
17
100
AcDbEntity
  8
0
100
AcDbLine
 10
2839.027376
 20
122.357014
 30
0.0
 11
2839.027376
 21
117.087369
 31
0.0
  0
LINE
  5
A3
330
17
100
AcDbEntity
  8
0
100
AcDbLine
 10
2832.427376
 20
122.357014
 30
0.0
 11
2832.427376
 21
117.087369
 31
0.0
  0
LINE
  5
A4
330
17
100
AcDbEntity
  8
0
100
AcDbLine
 10
2837.727376
 20
122.357014
 30
0.0
 11
2837.727376
 21
117.087369
 31
0.0
  0
LINE
  5
A5
330
17
100
AcDbEntity
  8
0
100
AcDbLine
 10
2833.727376
 20
122.357014
 30
0.0
 11
2833.727376
 21
117.087369
 31
0.0
  0
LINE
  5
A6
330
17
100
AcDbEntity
  8
0
100
AcDbLine
 10
2835.727376
 20
117.087369
 30
0.0
 11
2835.727376
 21
122.357014
 31
0.0
  0
LINE
  5
A7
330
17
100
AcDbEntity
  8
0
100
AcDbLine
 10
2830.227376
 20
122.357014
 30
0.0
 11
2841.227376
 21
122.357014
 31
0.0
  0
LINE
  5
A8
330
17
100
AcDbEntity
  8
0
100
AcDbLine
 10
2830.227376
 20
124.357014
 30
0.0
 11
2830.227376
 21
122.357014
 31
0.0
  0
LINE
  5
A9
330
17
100
AcDbEntity
  8
0
100
AcDbLine
 10
2841.227376
 20
124.357014
 30
0.0
 11
2830.227376
 21
124.357014
 31
0.0
  0
LINE
  5
AA
330
17
100
AcDbEntity
  8
0
100
AcDbLine
 10
2841.227376
 20
122.357014
 30
0.0
 11
2841.227376
 21
124.357014
 31
0.0
  0
LWPOLYLINE
  5
AB
330
17
100
AcDbEntity
  8
0
100
AcDbPolyline
 90
10
 70
0
 10
2841.227376
 20
261.540995
 10
2851.227376
 20
261.540995
 42
0.414214
 10
2856.227376
 20
266.540995
 10
2856.227376
 20
291.540995
 42
0.414214
 10
2854.227376
 20
293.540995
 10
2817.227376
 20
293.540995
 42
0.414214
 10
2815.227376
 20
291.540995
 10
2815.227376
 20
266.540995
 42
0.414214
 10
2820.227376
 20
261.540995
 10
2830.227376
 20
261.540995
  0
LWPOLYLINE
  5
AC
330
17
100
AcDbEntity
  8
0
100
AcDbPolyline
 90
4
 70
0
 10
2830.227376
 20
124.357014
 10
2841.227376
 20
124.357014
 10
2841.227376
 20
122.357014
 10
2830.227376
 20
122.357014
  0
LWPOLYLINE
  5
AD
330
17
100
AcDbEntity
  8
0
100
AcDbPolyline
 90
4
 70
0
 10
2830.227376
 20
272.664627
 42
-1.0
 10
2841.227376
 20
272.664627
 10
2841.227376
 20
124.357014
 10
2830.227376
 20
124.357014
  0
LWPOLYLINE
  5
AE
330
17
100
AcDbEntity
  8
0
100
AcDbPolyline
 90
4
 70
0
 10
2840.727376
 20
122.357014
 10
2840.727376
 20
117.087369
 10
2830.727376
 20
117.087369
 10
2830.727376
 20
122.357014
  0
LWPOLYLINE
  5
AF
330
17
100
AcDbEntity
  8
0
100
AcDbPolyline
 90
4
 70
0
 10
25.685721
 20
1156.040648
 10
55.685721
 20
1156.040648
 10
55.685721
 20
1096.040648
 10
25.685721
 20
1096.040648
  0
LWPOLYLINE
  5
B0
330
17
100
AcDbEntity
  8
0
100
AcDbPolyline
 90
4
 70
0
 10
1475.685605
 20
1286.040648
 10
1445.685721
 20
1286.040648
 10
1445.685721
 20
1196.040648
 10
1475.685605
 20
1196.040648
  0
LWPOLYLINE
  5
B1
330
17
100
AcDbEntity
  8
0
100
AcDbPolyline
 90
4
 70
0
 10
1115.685721
 20
741.040648
 10
1025.88571
 20
741.040648
 10
1025.88571
 20
711.040648
 10
1115.685721
 20
711.040648
  0
LWPOLYLINE
  5
B2
330
17
100
AcDbEntity
  8
0
100
AcDbPolyline
 90
4
 70
0
 10
1475.785741
 20
841.140771
 10
1435.78566
 20
841.140771
 10
1435.78566
 20
901.140743
 10
1475.785741
 20
901.140743
  0
LWPOLYLINE
  5
B3
330
17
100
AcDbEntity
  8
0
100
AcDbPolyline
 90
4
 70
0
 10
25.685721
 20
296.040648
 10
55.685721
 20
296.040648
 10
55.685721
 20
356.040648
 10
25.685721
 20
356.040648
  0
LWPOLYLINE
  5
B4
330
17
100
AcDbEntity
  8
0
100
AcDbPolyline
 90
4
 70
0
 10
1470.685721
 20
166.040648
 10
1440.785595
 20
166.040648
 10
1440.785595
 20
226.040655
 10
1470.685721
 20
226.040655
  0
LWPOLYLINE
  5
B5
330
17
100
AcDbEntity
  8
0
100
AcDbPolyline
 90
8
 70
0
 10
1475.685605
 20
366.040648
 10
1475.685605
 20
581.040648
 10
1445.685721
 20
581.040648
 10
1445.685721
 20
341.040648
 10
1735.685721
 20
341.040648
 10
1735.685721
 20
581.040648
 10
1705.885896
 20
581.040648
 10
1705.885896
 20
366.040648
  0
LWPOLYLINE
  5
B6
330
17
100
AcDbEntity
  8
0
100
AcDbPolyline
 90
4
 70
0
 10
3155.685721
 20
1156.040648
 10
3125.685721
 20
1156.040648
 10
3125.685721
 20
1096.040648
 10
3155.685721
 20
1096.040648
  0
LWPOLYLINE
  5
B7
330
17
100
AcDbEntity
  8
0
100
AcDbPolyline
 90
4
 70
0
 10
1710.685721
 20
1286.040648
 10
1735.685721
 20
1286.040648
 10
1735.685721
 20
1196.040648
 10
1710.685721
 20
1196.040648
  0
LWPOLYLINE
  5
B8
330
17
100
AcDbEntity
  8
0
100
AcDbPolyline
 90
4
 70
0
 10
2065.685721
 20
741.040648
 10
2155.685791
 20
741.040648
 10
2155.685791
 20
711.040648
 10
2065.685721
 20
711.040648
  0
LWPOLYLINE
  5
B9
330
17
100
AcDbEntity
  8
0
100
AcDbPolyline
 90
4
 70
0
 10
1705.78576
 20
841.140771
 10
1745.785841
 20
841.140771
 10
1745.785841
 20
901.140743
 10
1705.78576
 20
901.140743
  0
LWPOLYLINE
  5
BA
330
17
100
AcDbEntity
  8
0
100
AcDbPolyline
 90
4
 70
0
 10
3155.685721
 20
296.040648
 10
3125.685721
 20
296.040648
 10
3125.685721
 20
356.040648
 10
3155.685721
 20
356.040648
  0
LWPOLYLINE
  5
BB
330
17
100
AcDbEntity
  8
0
100
AcDbPolyline
 90
4
 70
0
 10
1710.685721
 20
166.040648
 10
1740.785607
 20
166.040648
 10
1740.885581
 20
226.040655
 10
1710.785695
 20
226.040655
  0
LWPOLYLINE
  5
BC
330
17
100
AcDbEntity
  8
0
100
AcDbPolyline
 90
4
 70
0
 10
25.685721
 20
1156.040648
 10
55.685721
 20
1156.040648
 10
55.685721
 20
1096.040648
 10
25.685721
 20
1096.040648
  0
LWPOLYLINE
  5
BD
330
17
100
AcDbEntity
  8
0
100
AcDbPolyline
 90
4
 70
0
 10
25.685721
 20
771.040648
 10
55.685721
 20
771.040648
 10
55.685721
 20
681.040648
 10
25.685721
 20
681.040648
  0
LWPOLYLINE
  5
BE
330
17
100
AcDbEntity
  8
0
100
AcDbPolyline
 90
4
 70
0
 10
1475.685605
 20
1286.040648
 10
1445.685721
 20
1286.040648
 10
1445.685721
 20
1196.040648
 10
1475.685605
 20
1196.040648
  0
LWPOLYLINE
  5
BF
330
17
100
AcDbEntity
  8
0
100
AcDbPolyline
 90
4
 70
0
 10
1115.685721
 20
741.040648
 10
1025.88571
 20
741.040648
 10
1025.88571
 20
711.040648
 10
1115.685721
 20
711.040648
  0
LWPOLYLINE
  5
C0
330
17
100
AcDbEntity
  8
0
100
AcDbPolyline
 90
4
 70
0
 10
1475.785741
 20
841.140771
 10
1435.78566
 20
841.140771
 10
1435.78566
 20
901.140743
 10
1475.785741
 20
901.140743
  0
LWPOLYLINE
  5
C1
330
17
100
AcDbEntity
  8
0
100
AcDbPolyline
 90
4
 70
0
 10
25.685721
 20
296.040648
 10
55.685721
 20
296.040648
 10
55.685721
 20
356.040648
 10
25.685721
 20
356.040648
  0
LWPOLYLINE
  5
C2
330
17
100
AcDbEntity
  8
0
100
AcDbPolyline
 90
4
 70
0
 10
1470.685721
 20
166.040648
 10
1440.785595
 20
166.040648
 10
1440.785595
 20
226.040655
 10
1470.685721
 20
226.040655
  0
LWPOLYLINE
  5
C3
330
17
100
AcDbEntity
  8
0
100
AcDbPolyline
 90
4
 70
0
 10
3155.685721
 20
1156.040648
 10
3125.685721
 20
1156.040648
 10
3125.685721
 20
1096.040648
 10
3155.685721
 20
1096.040648
  0
LWPOLYLINE
  5
C4
330
17
100
AcDbEntity
  8
0
100
AcDbPolyline
 90
4
 70
0
 10
1710.685721
 20
1286.040648
 10
1735.685721
 20
1286.040648
 10
1735.685721
 20
1196.040648
 10
1710.685721
 20
1196.040648
  0
LWPOLYLINE
  5
C5
330
17
100
AcDbEntity
  8
0
100
AcDbPolyline
 90
4
 70
0
 10
1705.78576
 20
841.140771
 10
1745.785841
 20
841.140771
 10
1745.785841
 20
901.140743
 10
1705.78576
 20
901.140743
  0
LWPOLYLINE
  5
C6
330
17
100
AcDbEntity
  8
0
100
AcDbPolyline
 90
4
 70
0
 10
3155.685721
 20
296.040648
 10
3125.685721
 20
296.040648
 10
3125.685721
 20
356.040648
 10
3155.685721
 20
356.040648
  0
LWPOLYLINE
  5
C7
330
17
100
AcDbEntity
  8
0
100
AcDbPolyline
 90
4
 70
0
 10
1710.685721
 20
166.040648
 10
1740.785607
 20
166.040648
 10
1740.885581
 20
226.040655
 10
1710.785695
 20
226.040655
  0
LWPOLYLINE
  5
C8
330
17
100
AcDbEntity
  8
0
100
AcDbPolyline
 90
4
 70
0
 10
1115.685721
 20
1286.040648
 10
1025.685721
 20
1286.040648
 10
1025.685721
 20
1256.040648
 10
1115.685721
 20
1256.040648
  0
LWPOLYLINE
  5
C9
330
17
100
AcDbEntity
  8
0
100
AcDbPolyline
 90
4
 70
0
 10
1115.685721
 20
196.040648
 10
1025.685721
 20
196.040648
 10
1025.685721
 20
166.040648
 10
1115.685721
 20
166.040648
  0
LWPOLYLINE
  5
CA
330
17
100
AcDbEntity
  8
0
100
AcDbPolyline
 90
6
 70
0
 10
370.685721
 20
1286.040648
 10
430.685721
 20
1286.040648
 10
430.685721
 20
1261.040648
 10
395.685721
 20
1261.040648
 10
395.685721
 20
1106.140712
 10
370.685721
 20
1106.140712
  0
LWPOLYLINE
  5
CB
330
17
100
AcDbEntity
  8
0
100
AcDbPolyline
 90
6
 70
0
 10
370.685721
 20
180.460688
 10
430.685721
 20
174.010871
 10
430.685721
 20
201.040648
 10
395.685721
 20
201.040648
 10
395.685721
 20
346.140736
 10
370.685721
 20
346.140736
  0
LWPOLYLINE
  5
CC
330
17
100
AcDbEntity
  8
0
100
AcDbPolyline
 90
4
 70
0
 10
3155.685721
 20
771.040648
 10
3125.685721
 20
771.040648
 10
3125.685721
 20
681.040648
 10
3155.685721
 20
681.040648
  0
LWPOLYLINE
  5
CD
330
17
100
AcDbEntity
  8
0
100
AcDbPolyline
 90
4
 70
0
 10
2065.685721
 20
741.040648
 10
2155.685791
 20
741.040648
 10
2155.685791
 20
711.040648
 10
2065.685721
 20
711.040648
  0
LWPOLYLINE
  5
CE
330
17
100
AcDbEntity
  8
0
100
AcDbPolyline
 90
4
 70
0
 10
2065.685721
 20
1286.040648
 10
2155.685721
 20
1286.040648
 10
2155.685721
 20
1256.040648
 10
2065.685721
 20
1256.040648
  0
LWPOLYLINE
  5
CF
330
17
100
AcDbEntity
  8
0
100
AcDbPolyline
 90
4
 70
0
 10
2065.685721
 20
196.040648
 10
2155.685721
 20
196.040648
 10
2155.685721
 20
166.040648
 10
2065.685721
 20
166.040648
  0
LWPOLYLINE
  5
D0
330
17
100
AcDbEntity
  8
0
100
AcDbPolyline
 90
6
 70
0
 10
2810.685721
 20
1286.040648
 10
2750.685721
 20
1286.040648
 10
2750.685721
 20
1261.040648
 10
2785.685721
 20
1261.040648
 10
2785.685721
 20
1106.140712
 10
2810.685721
 20
1106.140712
  0
LWPOLYLINE
  5
D1
330
17
100
AcDbEntity
  8
0
100
AcDbPolyline
 90
6
 70
0
 10
2810.685721
 20
166.040648
 10
2750.685721
 20
166.040648
 10
2750.685721
 20
191.040648
 10
2785.685721
 20
191.040648
 10
2785.785862
 20
346.140736
 10
2810.785862
 20
346.140736
  0
LWPOLYLINE
  5
D2
330
17
100
AcDbEntity
  8
0
100
AcDbPolyline
 90
4
 70
0
 10
2765.785822
 20
741.140717
 10
2855.785855
 20
741.140717
 10
2855.785855
 20
711.140717
 10
2765.785822
 20
711.140717
  0
LWPOLYLINE
  5
D3
330
17
100
AcDbEntity
  8
0
100
AcDbPolyline
 90
4
 70
0
 10
415.785828
 20
741.140717
 10
325.785794
 20
741.040648
 10
325.785794
 20
711.040648
 10
415.785828
 20
711.140717
  0
TEXT
  5
D4
330
17
100
AcDbEntity
  8
0
100
AcDbText
 10
1557.630814
 20
461.797805
 30
0.0
 40
2.5
  1
ASANSÖR
100
AcDbText
  0
TEXT
  5
D5
330
17
100
AcDbEntity
  8
0
100
AcDbText
 10
1208.730999
 20
1046.580559
 30
0.0
 40
2.5
  1
YATAK ODASI
100
AcDbText
  0
TEXT
  5
D6
330
17
100
AcDbEntity
  8
0
100
AcDbText
 10
861.33337
 20
1210.402761
 30
0.0
 40
2.5
  1
YATAK ODASI
100
AcDbText
  0
TEXT
  5
D7
330
17
100
AcDbEntity
  8
0
100
AcDbText
 10
544.520867
 20
1191.930571
 30
0.0
 40
2.5
  1
MUTFAK
100
AcDbText
  0
TEXT
  5
D8
330
17
100
AcDbEntity
  8
0
100
AcDbText
 10
261.223631
 20
933.86245
 30
0.0
 40
2.5
  1
SALON
100
AcDbText
  0
TEXT
  5
D9
330
17
100
AcDbEntity
  8
0
100
AcDbText
 10
1095.383418
 20
816.496667
 30
0.0
 40
2.5
  1
ANTRE
100
AcDbText
  0
TEXT
  5
DA
330
17
100
AcDbEntity
  8
0
100
AcDbText
 10
868.844978
 20
791.76259
 30
0.0
 40
2.5
  1
BANYO
100
AcDbText
  0
TEXT
  5
DB
330
17
100
AcDbEntity
  8
0
100
AcDbText
 10
619.479507
 20
785.516477
 30
0.0
 40
2.5
  1
WC
100
AcDbText
  0
TEXT
  5
DC
330
17
100
AcDbEntity
  8
0
100
AcDbText
 10
1235.995574
 20
443.879274
 30
0.0
 40
2.5
  1
YATAK ODASI
100
AcDbText
  0
TEXT
  5
DD
330
17
100
AcDbEntity
  8
0
100
AcDbText
 10
861.33337
 20
331.217991
 30
0.0
 40
2.5
  1
YATAK ODASI
100
AcDbText
  0
TEXT
  5
DE
330
17
100
AcDbEntity
  8
0
100
AcDbText
 10
514.517616
 20
320.878318
 30
0.0
 40
2.5
  1
MUTFAK
100
AcDbText
  0
TEXT
  5
DF
330
17
100
AcDbEntity
  8
0
100
AcDbText
 10
240.834986
 20
602.559722
 30
0.0
 40
2.5
  1
SALON
100
AcDbText
  0
TEXT
  5
E0
330
17
100
AcDbEntity
  8
0
100
AcDbText
 10
1095.383418
 20
679.979176
 30
0.0
 40
2.5
  1
ANTRE
100
AcDbText
  0
TEXT
  5
E1
330
17
100
AcDbEntity
  8
0
100
AcDbText
 10
856.660191
 20
655.430616
 30
0.0
 40
2.5
  1
BANYO
100
AcDbText
  0
TEXT
  5
E2
330
17
100
AcDbEntity
  8
0
100
AcDbText
 10
619.479507
 20
666.499625
 30
0.0
 40
2.5
  1
WC
100
AcDbText
  0
TEXT
  5
E3
330
17
100
AcDbEntity
  8
0
100
AcDbText
 10
1880.221511
 20
1057.834024
 30
0.0
 40
2.5
  1
YATAK ODASI
100
AcDbText
  0
TEXT
  5
E4
330
17
100
AcDbEntity
  8
0
100
AcDbText
 10
2225.741544
 20
1210.402761
 30
0.0
 40
2.5
  1
YATAK ODASI
100
AcDbText
  0
TEXT
  5
E5
330
17
100
AcDbEntity
  8
0
100
AcDbText
 10
2543.564678
 20
1191.930571
 30
0.0
 40
2.5
  1
MUTFAK
100
AcDbText
  0
TEXT
  5
E6
330
17
100
AcDbEntity
  8
0
100
AcDbText
 10
2837.569094
 20
920.152217
 30
0.0
 40
2.5
  1
SALON
100
AcDbText
  0
TEXT
  5
E7
330
17
100
AcDbEntity
  8
0
100
AcDbText
 10
2051.736301
 20
816.496667
 30
0.0
 40
2.5
  1
ANTRE
100
AcDbText
  0
TEXT
  5
E8
330
17
100
AcDbEntity
  8
0
100
AcDbText
 10
2250.497344
 20
796.853048
 30
0.0
 40
2.5
  1
BANYO
100
AcDbText
  0
TEXT
  5
E9
330
17
100
AcDbEntity
  8
0
100
AcDbText
 10
2532.568703
 20
785.516477
 30
0.0
 40
2.5
  1
WC
100
AcDbText
  0
TEXT
  5
EA
330
17
100
AcDbEntity
  8
0
100
AcDbText
 10
1855.510532
 20
402.657223
 30
0.0
 40
2.5
  1
YATAK ODASI
100
AcDbText
  0
TEXT
  5
EB
330
17
100
AcDbEntity
  8
0
100
AcDbText
 10
2220.751982
 20
297.094348
 30
0.0
 40
2.5
  1
YATAK ODASI
100
AcDbText
  0
TEXT
  5
EC
330
17
100
AcDbEntity
  8
0
100
AcDbText
 10
2539.721792
 20
294.785801
 30
0.0
 40
2.5
  1
MUTFAK
100
AcDbText
  0
TEXT
  5
ED
330
17
100
AcDbEntity
  8
0
100
AcDbText
 10
2907.400927
 20
562.183969
 30
0.0
 40
2.5
  1
SALON
100
AcDbText
  0
TEXT
  5
EE
330
17
100
AcDbEntity
  8
0
100
AcDbText
 10
2053.322785
 20
669.17435
 30
0.0
 40
2.5
  1
ANTRE
100
AcDbText
  0
TEXT
  5
EF
330
17
100
AcDbEntity
  8
0
100
AcDbText
 10
2252.740996
 20
645.271565
 30
0.0
 40
2.5
  1
BANYO
100
AcDbText
  0
TEXT
  5
F0
330
17
100
AcDbEntity
  8
0
100
AcDbText
 10
2532.568703
 20
653.226772
 30
0.0
 40
2.5
  1
WC
100
AcDbText
  0
TEXT
  5
F1
330
17
100
AcDbEntity
  8
0
100
AcDbText
 10
2925.222656
 20
1314.258048
 30
0.0
 40
2.5
  1
BALKON
100
AcDbText
  0
TEXT
  5
F2
330
17
100
AcDbEntity
  8
0
100
AcDbText
 10
2933.387624
 20
145.683821
 30
0.0
 40
2.5
  1
BALKON
100
AcDbText
  0
TEXT
  5
F3
330
17
100
AcDbEntity
  8
0
100
AcDbText
 10
593.989421
 20
71.028259
 30
0.0
 40
2.5
  1
Zemin Terası
100
AcDbText
  0
TEXT
  5
F4
330
17
100
AcDbEntity
  8
0
100
AcDbText
 10
1864.308486
 20
70.628432
 30
0.0
 40
2.5
  1
BALKON
100
AcDbText
  0
TEXT
  5
F5
330
17
100
AcDbEntity
  8
0
100
AcDbText
 10
1238.989421
 20
1366.244956
 30
0.0
 40
2.5
  1
BALKON
100
AcDbText
  0
TEXT
  5
F6
330
17
100
AcDbEntity
  8
0
100
AcDbText
 10
1864.308486
 20
1366.644783
 30
0.0
 40
2.5
  1
BALKON
100
AcDbText
  0
LINE
  5
F7
330
17
100
AcDbEntity
  8
0
100
AcDbLine
 10
455.685721
 20
1066.040648
 30
0.0
 11
560.685721
 21
1066.040648
 31
0.0
  0
LWPOLYLINE
  5
F8
330
17
100
AcDbEntity
  8
0
100
AcDbPolyline
 90
2
 70
0
 10
1705.885896
 20
556.040648
 10
1475.685605
 20
556.040648
  0
LINE
  5
F9
330
17
100
AcDbEntity
  8
0
100
AcDbLine
 10
455.685721
 20
1196.040648
 30
0.0
 11
455.685721
 21
1066.040648
 31
0.0
  0
LINE
  5
FA
330
17
100
AcDbEntity
  8
0
100
AcDbLine
 10
560.685721
 20
1066.040648
 30
0.0
 11
560.685721
 21
1006.040648
 31
0.0
  0
LINE
  5
FB
330
17
100
AcDbEntity
  8
0
100
AcDbLine
 10
560.685721
 20
386.040648
 30
0.0
 11
560.685721
 21
446.040648
 31
0.0
  0
LINE
  5
FC
330
17
100
AcDbEntity
  8
0
100
AcDbLine
 10
2725.685721
 20
1066.040648
 30
0.0
 11
2620.685721
 21
1066.040648
 31
0.0
  0
LINE
  5
FD
330
17
100
AcDbEntity
  8
0
100
AcDbLine
 10
2725.685721
 20
1201.040648
 30
0.0
 11
2725.685721
 21
1066.040648
 31
0.0
  0
LINE
  5
FE
330
17
100
AcDbEntity
  8
0
100
AcDbLine
 10
2620.685721
 20
1066.040648
 30
0.0
 11
2620.685721
 21
1006.040648
 31
0.0
  0
LINE
  5
FF
330
17
100
AcDbEntity
  8
0
100
AcDbLine
 10
2725.685721
 20
386.040648
 30
0.0
 11
2620.685721
 21
386.040648
 31
0.0
  0
LINE
  5
100
330
17
100
AcDbEntity
  8
0
100
AcDbLine
 10
2725.685721
 20
251.040648
 30
0.0
 11
2725.685721
 21
386.040648
 31
0.0
  0
LINE
  5
101
330
17
100
AcDbEntity
  8
0
100
AcDbLine
 10
2620.685721
 20
386.040648
 30
0.0
 11
2620.685721
 21
443.540648
 31
0.0
  0
ARC
  5
102
330
17
100
AcDbEntity
  8
0
100
AcDbCircle
 10
1424.112394
 20
457.108413
 30
0.0
 40
11.64216094363396
100
AcDbArc
 50
0.0
 51
90.0
  0
ARC
  5
103
330
17
100
AcDbEntity
  8
0
100
AcDbCircle
 10
1416.185816
 20
457.108413
 30
0.0
 40
11.64216094363396
100
AcDbArc
 50
90.0
 51
112.518314
  0
LINE
  5
104
330
17
100
AcDbEntity
  8
0
100
AcDbLine
 10
1424.112394
 20
468.750574
 30
0.0
 11
1416.185816
 21
468.750574
 31
0.0
  0
LWPOLYLINE
  5
105
330
17
100
AcDbEntity
  8
0
100
AcDbPolyline
 90
4
 70
0
 10
1883.185721
 20
606.040648
 10
1738.185721
 20
606.040648
 10
1738.185721
 20
571.040648
 10
1883.185721
 20
571.040648
  0
LWPOLYLINE
  5
106
330
17
100
AcDbEntity
  8
0
100
AcDbPolyline
 90
4
 70
0
 10
1298.185721
 20
606.040648
 10
1443.185721
 20
606.040648
 10
1443.185721
 20
571.040648
 10
1298.185721
 20
571.040648
  0
LINE
  5
107
330
17
100
AcDbEntity
  8
0
100
AcDbLine
 10
1883.185721
 20
571.040648
 30
0.0
 11
1883.185721
 21
606.040648
 31
0.0
  0
LINE
  5
108
330
17
100
AcDbEntity
  8
0
100
AcDbLine
 10
1923.743776
 20
996.844311
 30
0.0
 11
1786.727636
 21
996.844311
 31
0.0
  0
LINE
  5
109
330
17
100
AcDbEntity
  8
0
100
AcDbLine
 10
1923.743776
 20
999.816777
 30
0.0
 11
1784.629424
 21
999.816777
 31
0.0
  0
LINE
  5
10A
330
17
100
AcDbEntity
  8
0
100
AcDbLine
 10
1923.743776
 20
1002.789244
 30
0.0
 11
1782.531212
 21
1002.789244
 31
0.0
  0
LINE
  5
10B
330
17
100
AcDbEntity
  8
0
100
AcDbLine
 10
1923.743776
 20
1005.761711
 30
0.0
 11
1780.433001
 21
1005.761711
 31
0.0
  0
ARC
  5
10C
330
17
100
AcDbEntity
  8
0
100
AcDbCircle
 10
1924.734598
 20
981.486566
 30
0.0
 40
3.963288831873797
100
AcDbArc
 50
270.0
 51
0.0
  0
LINE
  5
10D
330
17
100
AcDbEntity
  8
0
100
AcDbLine
 10
1737.667366
 20
479.034133
 30
0.0
 11
1737.667366
 21
514.703733
 31
0.0
  0
LWPOLYLINE
  5
10E
330
17
100
AcDbEntity
  8
0
100
AcDbPolyline
 90
4
 70
0
 10
264.946657
 20
975.80381
 10
161.933843
 20
975.797015
 10
161.939969
 20
882.929381
 10
264.952784
 20
882.936177
  0
LWPOLYLINE
  5
10F
330
17
100
AcDbEntity
  8
0
100
AcDbPolyline
 90
4
 70
0
 10
264.946657
 20
476.277486
 10
161.933843
 20
476.284281
 10
161.939969
 20
569.151915
 10
264.952784
 20
569.145119
  0
LWPOLYLINE
  5
110
330
17
100
AcDbEntity
  8
0
100
AcDbPolyline
 90
4
 70
0
 10
2916.424785
 20
975.80381
 10
3019.437599
 20
975.797015
 10
3019.431473
 20
882.929381
 10
2916.418659
 20
882.936177
  0
LWPOLYLINE
  5
111
330
17
100
AcDbEntity
  8
0
100
AcDbPolyline
 90
4
 70
0
 10
2916.424785
 20
476.277486
 10
3019.437599
 20
476.284281
 10
3019.431473
 20
569.151915
 10
2916.418659
 20
569.145119
  0
LINE
  5
112
330
17
100
AcDbEntity
  8
0
100
AcDbLine
 10
455.685721
 20
386.040648
 30
0.0
 11
560.685721
 21
386.040648
 31
0.0
  0
LINE
  5
113
330
17
100
AcDbEntity
  8
0
100
AcDbLine
 10
455.685721
 20
251.040648
 30
0.0
 11
455.685721
 21
386.040648
 31
0.0
  0
LINE
  5
114
330
17
100
AcDbEntity
  8
0
100
AcDbLine
 10
1435.78566
 20
881.040648
 30
0.0
 11
1298.185721
 21
881.040648
 31
0.0
  0
LINE
  5
115
330
17
100
AcDbEntity
  8
0
100
AcDbLine
 10
1298.185721
 20
881.040648
 30
0.0
 11
1298.185721
 21
846.040648
 31
0.0
  0
LINE
  5
116
330
17
100
AcDbEntity
  8
0
100
AcDbLine
 10
1298.185721
 20
846.040648
 30
0.0
 11
1435.78566
 21
846.040648
 31
0.0
  0
LINE
  5
117
330
17
100
AcDbEntity
  8
0
100
AcDbLine
 10
1745.785841
 20
881.040648
 30
0.0
 11
1883.185721
 21
881.040648
 31
0.0
  0
LINE
  5
118
330
17
100
AcDbEntity
  8
0
100
AcDbLine
 10
1883.185721
 20
881.040648
 30
0.0
 11
1883.185721
 21
846.040648
 31
0.0
  0
LINE
  5
119
330
17
100
AcDbEntity
  8
0
100
AcDbLine
 10
1883.185721
 20
846.040648
 30
0.0
 11
1745.785841
 21
846.040648
 31
0.0
  0
LINE
  5
11A
330
17
100
AcDbEntity
  8
0
100
AcDbLine
 10
710.685721
 20
576.040648
 30
0.0
 11
710.685721
 21
666.040648
 31
0.0
  0
LINE
  5
11B
330
17
100
AcDbEntity
  8
0
100
AcDbLine
 10
25.685721
 20
1096.040648
 30
0.0
 11
25.685721
 21
810.175562
 31
0.0
  0
LINE
  5
11C
330
17
100
AcDbEntity
  8
0
100
AcDbLine
 10
50.685721
 20
1096.040648
 30
0.0
 11
50.685721
 21
810.175562
 31
0.0
  0
LINE
  5
11D
330
17
100
AcDbEntity
  8
0
100
AcDbLine
 10
50.685721
 20
856.040648
 30
0.0
 11
50.685721
 21
771.040648
 31
0.0
  0
LINE
  5
11E
330
17
100
AcDbEntity
  8
0
100
AcDbLine
 10
385.685721
 20
1106.140712
 30
0.0
 11
385.685721
 21
996.040648
 31
0.0
  0
LINE
  5
11F
330
17
100
AcDbEntity
  8
0
100
AcDbLine
 10
395.685721
 20
1106.140712
 30
0.0
 11
395.685721
 21
1006.040648
 31
0.0
  0
LINE
  5
120
330
17
100
AcDbEntity
  8
0
100
AcDbLine
 10
430.685721
 20
1286.040648
 30
0.0
 11
535.657649
 21
1286.040648
 31
0.0
  0
LINE
  5
121
330
17
100
AcDbEntity
  8
0
100
AcDbLine
 10
675.657649
 20
1286.040648
 30
0.0
 11
845.685721
 21
1286.040648
 31
0.0
  0
LINE
  5
122
330
17
100
AcDbEntity
  8
0
100
AcDbLine
 10
985.685721
 20
1286.040648
 30
0.0
 11
1025.685721
 21
1286.040648
 31
0.0
  0
LINE
  5
123
330
17
100
AcDbEntity
  8
0
100
AcDbLine
 10
430.685721
 20
1266.040648
 30
0.0
 11
535.657649
 21
1266.040648
 31
0.0
  0
LINE
  5
124
330
17
100
AcDbEntity
  8
0
100
AcDbLine
 10
675.657649
 20
1266.040648
 30
0.0
 11
745.685721
 21
1266.040648
 31
0.0
  0
LINE
  5
125
330
17
100
AcDbEntity
  8
0
100
AcDbLine
 10
755.685721
 20
1266.040648
 30
0.0
 11
845.685721
 21
1266.040648
 31
0.0
  0
LINE
  5
126
330
17
100
AcDbEntity
  8
0
100
AcDbLine
 10
985.685721
 20
1266.040648
 30
0.0
 11
1025.685721
 21
1266.040648
 31
0.0
  0
LINE
  5
127
330
17
100
AcDbEntity
  8
0
100
AcDbLine
 10
745.685721
 20
1266.040648
 30
0.0
 11
745.685721
 21
1006.040648
 31
0.0
  0
LINE
  5
128
330
17
100
AcDbEntity
  8
0
100
AcDbLine
 10
700.685721
 20
886.04064
 30
0.0
 11
700.685721
 21
876.040648
 31
0.0
  0
LINE
  5
129
330
17
100
AcDbEntity
  8
0
100
AcDbLine
 10
700.685721
 20
866.040648
 30
0.0
 11
700.685721
 21
786.040648
 31
0.0
  0
LINE
  5
12A
330
17
100
AcDbEntity
  8
0
100
AcDbLine
 10
755.685721
 20
1266.040648
 30
0.0
 11
755.685721
 21
1006.040648
 31
0.0
  0
LINE
  5
12B
330
17
100
AcDbEntity
  8
0
100
AcDbLine
 10
710.685721
 20
876.040648
 30
0.0
 11
710.685721
 21
786.040648
 31
0.0
  0
LINE
  5
12C
330
17
100
AcDbEntity
  8
0
100
AcDbLine
 10
580.685721
 20
996.040648
 30
0.0
 11
580.685721
 21
971.040648
 31
0.0
  0
LINE
  5
12D
330
17
100
AcDbEntity
  8
0
100
AcDbLine
 10
580.685721
 20
881.040648
 30
0.0
 11
580.685721
 21
736.040648
 31
0.0
  0
LINE
  5
12E
330
17
100
AcDbEntity
  8
0
100
AcDbLine
 10
590.685721
 20
996.040648
 30
0.0
 11
590.685721
 21
971.040648
 31
0.0
  0
LINE
  5
12F
330
17
100
AcDbEntity
  8
0
100
AcDbLine
 10
590.685721
 20
881.040648
 30
0.0
 11
590.685721
 21
876.040648
 31
0.0
  0
LINE
  5
130
330
17
100
AcDbEntity
  8
0
100
AcDbLine
 10
590.685721
 20
866.040648
 30
0.0
 11
590.685721
 21
736.040648
 31
0.0
  0
LINE
  5
131
330
17
100
AcDbEntity
  8
0
100
AcDbLine
 10
1105.685721
 20
1256.040648
 30
0.0
 11
1105.685721
 21
1006.040648
 31
0.0
  0
LINE
  5
132
330
17
100
AcDbEntity
  8
0
100
AcDbLine
 10
1115.685721
 20
1256.040648
 30
0.0
 11
1115.685721
 21
1241.040648
 31
0.0
  0
LINE
  5
133
330
17
100
AcDbEntity
  8
0
100
AcDbLine
 10
1115.685721
 20
1221.040648
 30
0.0
 11
1115.685721
 21
1006.040648
 31
0.0
  0
LINE
  5
134
330
17
100
AcDbEntity
  8
0
100
AcDbLine
 10
1445.685721
 20
1196.040648
 30
0.0
 11
1445.685721
 21
901.140743
 31
0.0
  0
LINE
  5
135
330
17
100
AcDbEntity
  8
0
100
AcDbLine
 10
1445.685721
 20
746.040648
 30
0.0
 11
1445.685721
 21
736.040648
 31
0.0
  0
LINE
  5
136
330
17
100
AcDbEntity
  8
0
100
AcDbLine
 10
1295.685721
 20
886.040648
 30
0.0
 11
1295.685721
 21
846.040648
 31
0.0
  0
LINE
  5
137
330
17
100
AcDbEntity
  8
0
100
AcDbLine
 10
1285.685721
 20
896.040648
 30
0.0
 11
1285.685721
 21
856.040648
 31
0.0
  0
LINE
  5
138
330
17
100
AcDbEntity
  8
0
100
AcDbLine
 10
1465.685721
 20
1196.040648
 30
0.0
 11
1465.685721
 21
1162.922825
 31
0.0
  0
LINE
  5
139
330
17
100
AcDbEntity
  8
0
100
AcDbLine
 10
1465.685721
 20
1148.780689
 30
0.0
 11
1465.685721
 21
901.140743
 31
0.0
  0
LINE
  5
13A
330
17
100
AcDbEntity
  8
0
100
AcDbLine
 10
1015.685721
 20
876.040648
 30
0.0
 11
1015.685721
 21
736.040648
 31
0.0
  0
LINE
  5
13B
330
17
100
AcDbEntity
  8
0
100
AcDbLine
 10
1025.685721
 20
886.040648
 30
0.0
 11
1025.685721
 21
736.040648
 31
0.0
  0
LINE
  5
13C
330
17
100
AcDbEntity
  8
0
100
AcDbLine
 10
395.685721
 20
1006.040648
 30
0.0
 11
650.685721
 21
1006.040648
 31
0.0
  0
LINE
  5
13D
330
17
100
AcDbEntity
  8
0
100
AcDbLine
 10
740.685721
 20
1006.040648
 30
0.0
 11
745.685721
 21
1006.040648
 31
0.0
  0
LINE
  5
13E
330
17
100
AcDbEntity
  8
0
100
AcDbLine
 10
755.685721
 20
1006.040648
 30
0.0
 11
1005.685721
 21
1006.040648
 31
0.0
  0
LINE
  5
13F
330
17
100
AcDbEntity
  8
0
100
AcDbLine
 10
1095.685721
 20
1006.040648
 30
0.0
 11
1105.685721
 21
1006.040648
 31
0.0
  0
LINE
  5
140
330
17
100
AcDbEntity
  8
0
100
AcDbLine
 10
1115.685721
 20
1006.040648
 30
0.0
 11
1145.685721
 21
1006.040648
 31
0.0
  0
LINE
  5
141
330
17
100
AcDbEntity
  8
0
100
AcDbLine
 10
385.685721
 20
996.040648
 30
0.0
 11
580.685721
 21
996.040648
 31
0.0
  0
LINE
  5
142
330
17
100
AcDbEntity
  8
0
100
AcDbLine
 10
590.685721
 20
996.040648
 30
0.0
 11
650.685721
 21
996.040648
 31
0.0
  0
LINE
  5
143
330
17
100
AcDbEntity
  8
0
100
AcDbLine
 10
740.685721
 20
996.040648
 30
0.0
 11
1005.685721
 21
996.040648
 31
0.0
  0
LINE
  5
144
330
17
100
AcDbEntity
  8
0
100
AcDbLine
 10
1095.685721
 20
996.040648
 30
0.0
 11
1135.685721
 21
996.040648
 31
0.0
  0
LINE
  5
145
330
17
100
AcDbEntity
  8
0
100
AcDbLine
 10
590.685721
 20
876.040648
 30
0.0
 11
595.685721
 21
876.040648
 31
0.0
  0
LINE
  5
146
330
17
100
AcDbEntity
  8
0
100
AcDbLine
 10
700.685721
 20
886.04064
 30
0.0
 11
810.685721
 21
886.040602
 31
0.0
  0
LINE
  5
147
330
17
100
AcDbEntity
  8
0
100
AcDbLine
 10
890.685721
 20
886.040602
 30
0.0
 11
1025.685721
 21
886.040648
 31
0.0
  0
LINE
  5
148
330
17
100
AcDbEntity
  8
0
100
AcDbLine
 10
1285.685721
 20
896.040648
 30
0.0
 11
1435.78566
 21
896.040648
 31
0.0
  0
LINE
  5
149
330
17
100
AcDbEntity
  8
0
100
AcDbLine
 10
590.685721
 20
866.040648
 30
0.0
 11
595.685721
 21
866.040648
 31
0.0
  0
LINE
  5
14A
330
17
100
AcDbEntity
  8
0
100
AcDbLine
 10
675.685721
 20
876.040648
 30
0.0
 11
700.685721
 21
876.040648
 31
0.0
  0
LINE
  5
14B
330
17
100
AcDbEntity
  8
0
100
AcDbLine
 10
675.685721
 20
866.040648
 30
0.0
 11
700.685721
 21
866.040648
 31
0.0
  0
LINE
  5
14C
330
17
100
AcDbEntity
  8
0
100
AcDbLine
 10
710.685721
 20
876.040648
 30
0.0
 11
810.685721
 21
876.040602
 31
0.0
  0
LINE
  5
14D
330
17
100
AcDbEntity
  8
0
100
AcDbLine
 10
890.685721
 20
876.040602
 30
0.0
 11
1015.685721
 21
876.040648
 31
0.0
  0
LINE
  5
14E
330
17
100
AcDbEntity
  8
0
100
AcDbLine
 10
1295.685721
 20
886.040648
 30
0.0
 11
1435.78566
 21
886.040648
 31
0.0
  0
LINE
  5
14F
330
17
100
AcDbEntity
  8
0
100
AcDbLine
 10
55.685721
 20
736.040648
 30
0.0
 11
325.785794
 21
736.040648
 31
0.0
  0
LINE
  5
150
330
17
100
AcDbEntity
  8
0
100
AcDbLine
 10
415.785828
 20
736.140717
 30
0.0
 11
580.685721
 21
736.040648
 31
0.0
  0
LINE
  5
151
330
17
100
AcDbEntity
  8
0
100
AcDbLine
 10
590.685721
 20
736.040648
 30
0.0
 11
780.748113
 21
736.040648
 31
0.0
  0
LINE
  5
152
330
17
100
AcDbEntity
  8
0
100
AcDbLine
 10
755.685721
 20
736.040648
 30
0.0
 11
1015.685721
 21
736.040648
 31
0.0
  0
LINE
  5
153
330
17
100
AcDbEntity
  8
0
100
AcDbLine
 10
1115.685721
 20
736.040648
 30
0.0
 11
1445.685721
 21
736.040648
 31
0.0
  0
LINE
  5
154
330
17
100
AcDbEntity
  8
0
100
AcDbLine
 10
55.685721
 20
1156.040648
 30
0.0
 11
140.685721
 21
1156.040648
 31
0.0
  0
LINE
  5
155
330
17
100
AcDbEntity
  8
0
100
AcDbLine
 10
320.685721
 20
1156.040648
 30
0.0
 11
370.685721
 21
1156.040648
 31
0.0
  0
LINE
  5
156
330
17
100
AcDbEntity
  8
0
100
AcDbLine
 10
55.685721
 20
1136.040648
 30
0.0
 11
140.685721
 21
1136.040648
 31
0.0
  0
LINE
  5
157
330
17
100
AcDbEntity
  8
0
100
AcDbLine
 10
320.685721
 20
1136.040648
 30
0.0
 11
370.685721
 21
1136.040648
 31
0.0
  0
LINE
  5
158
330
17
100
AcDbEntity
  8
0
100
AcDbLine
 10
1145.685721
 20
856.040648
 30
0.0
 11
1158.357131
 21
856.040648
 31
0.0
  0
LINE
  5
159
330
17
100
AcDbEntity
  8
0
100
AcDbLine
 10
1248.357131
 20
856.040648
 30
0.0
 11
1285.685721
 21
856.040648
 31
0.0
  0
LINE
  5
15A
330
17
100
AcDbEntity
  8
0
100
AcDbLine
 10
1135.685721
 20
846.040648
 30
0.0
 11
1158.357131
 21
846.040648
 31
0.0
  0
LINE
  5
15B
330
17
100
AcDbEntity
  8
0
100
AcDbLine
 10
1248.357131
 20
846.040648
 30
0.0
 11
1295.685721
 21
846.040648
 31
0.0
  0
LINE
  5
15C
330
17
100
AcDbEntity
  8
0
100
AcDbLine
 10
25.685721
 20
771.040648
 30
0.0
 11
25.685721
 21
856.040648
 31
0.0
  0
LINE
  5
15D
330
17
100
AcDbEntity
  8
0
100
AcDbLine
 10
1465.685721
 20
726.040648
 30
0.0
 11
1465.685721
 21
746.040648
 31
0.0
  0
LWPOLYLINE
  5
15E
330
17
100
AcDbEntity
  8
0
100
AcDbPolyline
 90
2
 70
0
 10
685.685721
 20
776.040648
 10
765.685721
 20
776.040648
  0
LINE
  5
15F
330
17
100
AcDbEntity
  8
0
100
AcDbLine
 10
1475.685605
 20
1206.040648
 30
0.0
 11
1508.803545
 21
1206.040648
 31
0.0
  0
LINE
  5
160
330
17
100
AcDbEntity
  8
0
100
AcDbLine
 10
1522.94568
 20
1206.040648
 30
0.0
 11
1525.685721
 21
1206.040648
 31
0.0
  0
LINE
  5
161
330
17
100
AcDbEntity
  8
0
100
AcDbLine
 10
1655.685721
 20
1206.040648
 30
0.0
 11
1710.685721
 21
1206.040648
 31
0.0
  0
LINE
  5
162
330
17
100
AcDbEntity
  8
0
100
AcDbLine
 10
1475.685605
 20
1226.040648
 30
0.0
 11
1525.685721
 21
1226.040648
 31
0.0
  0
LINE
  5
163
330
17
100
AcDbEntity
  8
0
100
AcDbLine
 10
1655.685721
 20
1226.040648
 30
0.0
 11
1710.685721
 21
1226.040648
 31
0.0
  0
LWPOLYLINE
  5
164
330
17
100
AcDbEntity
  8
0
100
AcDbPolyline
 90
3
 70
0
 10
765.685721
 20
776.040648
 10
765.685721
 20
786.040648
 10
710.685721
 20
786.040648
  0
LWPOLYLINE
  5
165
330
17
100
AcDbEntity
  8
0
100
AcDbPolyline
 90
3
 70
0
 10
700.685721
 20
786.040648
 10
685.685721
 20
786.040648
 10
685.685721
 20
776.040648
  0
LINE
  5
166
330
17
100
AcDbEntity
  8
0
100
AcDbLine
 10
25.685721
 20
356.040648
 30
0.0
 11
25.685721
 21
616.77895
 31
0.0
  0
LINE
  5
167
330
17
100
AcDbEntity
  8
0
100
AcDbLine
 10
50.685721
 20
356.040648
 30
0.0
 11
50.685721
 21
616.77895
 31
0.0
  0
LINE
  5
168
330
17
100
AcDbEntity
  8
0
100
AcDbLine
 10
50.685721
 20
596.040648
 30
0.0
 11
50.685721
 21
681.040648
 31
0.0
  0
LINE
  5
169
330
17
100
AcDbEntity
  8
0
100
AcDbLine
 10
320.685721
 20
296.040648
 30
0.0
 11
320.685721
 21
316.040648
 31
0.0
  0
LINE
  5
16A
330
17
100
AcDbEntity
  8
0
100
AcDbLine
 10
140.685721
 20
296.040648
 30
0.0
 11
140.685721
 21
316.040648
 31
0.0
  0
LINE
  5
16B
330
17
100
AcDbEntity
  8
0
100
AcDbLine
 10
385.685721
 20
346.140736
 30
0.0
 11
385.685721
 21
456.040648
 31
0.0
  0
LINE
  5
16C
330
17
100
AcDbEntity
  8
0
100
AcDbLine
 10
395.685721
 20
346.140736
 30
0.0
 11
395.685721
 21
446.040648
 31
0.0
  0
LINE
  5
16D
330
17
100
AcDbEntity
  8
0
100
AcDbLine
 10
695.657649
 20
166.040648
 30
0.0
 11
845.685721
 21
166.040648
 31
0.0
  0
LINE
  5
16E
330
17
100
AcDbEntity
  8
0
100
AcDbLine
 10
985.685721
 20
166.040648
 30
0.0
 11
1025.685721
 21
166.040648
 31
0.0
  0
LINE
  5
16F
330
17
100
AcDbEntity
  8
0
100
AcDbLine
 10
1115.685721
 20
211.040648
 30
0.0
 11
1205.685721
 21
211.040648
 31
0.0
  0
LINE
  5
170
330
17
100
AcDbEntity
  8
0
100
AcDbLine
 10
1345.685721
 20
211.040648
 30
0.0
 11
1440.785595
 21
211.040648
 31
0.0
  0
LINE
  5
171
330
17
100
AcDbEntity
  8
0
100
AcDbLine
 10
695.657649
 20
186.040648
 30
0.0
 11
745.685721
 21
186.040648
 31
0.0
  0
LINE
  5
172
330
17
100
AcDbEntity
  8
0
100
AcDbLine
 10
755.685721
 20
186.040648
 30
0.0
 11
845.685721
 21
186.040648
 31
0.0
  0
LINE
  5
173
330
17
100
AcDbEntity
  8
0
100
AcDbLine
 10
985.685721
 20
186.040648
 30
0.0
 11
1025.685721
 21
186.040648
 31
0.0
  0
LINE
  5
174
330
17
100
AcDbEntity
  8
0
100
AcDbLine
 10
1115.685721
 20
231.040648
 30
0.0
 11
1205.685721
 21
231.040648
 31
0.0
  0
LINE
  5
175
330
17
100
AcDbEntity
  8
0
100
AcDbLine
 10
1345.685721
 20
231.040648
 30
0.0
 11
1450.685721
 21
231.040648
 31
0.0
  0
LINE
  5
176
330
17
100
AcDbEntity
  8
0
100
AcDbLine
 10
745.685721
 20
186.040648
 30
0.0
 11
745.685721
 21
446.040648
 31
0.0
  0
LINE
  5
177
330
17
100
AcDbEntity
  8
0
100
AcDbLine
 10
700.685721
 20
586.040648
 30
0.0
 11
700.685721
 21
666.040648
 31
0.0
  0
LINE
  5
178
330
17
100
AcDbEntity
  8
0
100
AcDbLine
 10
755.685721
 20
186.040648
 30
0.0
 11
755.685721
 21
446.040648
 31
0.0
  0
LINE
  5
179
330
17
100
AcDbEntity
  8
0
100
AcDbLine
 10
580.685721
 20
456.040648
 30
0.0
 11
580.685721
 21
481.040648
 31
0.0
  0
LINE
  5
17A
330
17
100
AcDbEntity
  8
0
100
AcDbLine
 10
580.685721
 20
571.040648
 30
0.0
 11
580.685721
 21
716.040648
 31
0.0
  0
LINE
  5
17B
330
17
100
AcDbEntity
  8
0
100
AcDbLine
 10
590.685721
 20
456.040648
 30
0.0
 11
590.685721
 21
481.040648
 31
0.0
  0
LINE
  5
17C
330
17
100
AcDbEntity
  8
0
100
AcDbLine
 10
590.685721
 20
571.040648
 30
0.0
 11
590.685721
 21
576.040648
 31
0.0
  0
LINE
  5
17D
330
17
100
AcDbEntity
  8
0
100
AcDbLine
 10
590.685721
 20
586.040648
 30
0.0
 11
590.685721
 21
716.040648
 31
0.0
  0
LINE
  5
17E
330
17
100
AcDbEntity
  8
0
100
AcDbLine
 10
1105.685721
 20
196.040648
 30
0.0
 11
1105.685721
 21
446.040648
 31
0.0
  0
LINE
  5
17F
330
17
100
AcDbEntity
  8
0
100
AcDbLine
 10
1450.685721
 20
226.040655
 30
0.0
 11
1450.685721
 21
341.040648
 31
0.0
  0
LINE
  5
180
330
17
100
AcDbEntity
  8
0
100
AcDbLine
 10
1470.685721
 20
226.040655
 30
0.0
 11
1470.685721
 21
341.040648
 31
0.0
  0
LINE
  5
181
330
17
100
AcDbEntity
  8
0
100
AcDbLine
 10
1445.685721
 20
566.040648
 30
0.0
 11
1445.685721
 21
606.040648
 31
0.0
  0
LINE
  5
182
330
17
100
AcDbEntity
  8
0
100
AcDbLine
 10
1445.685721
 20
706.040648
 30
0.0
 11
1445.685721
 21
716.040648
 31
0.0
  0
LINE
  5
183
330
17
100
AcDbEntity
  8
0
100
AcDbLine
 10
1295.685721
 20
566.040648
 30
0.0
 11
1295.685721
 21
606.040648
 31
0.0
  0
LINE
  5
184
330
17
100
AcDbEntity
  8
0
100
AcDbLine
 10
1285.685721
 20
556.040648
 30
0.0
 11
1285.685721
 21
596.040648
 31
0.0
  0
LINE
  5
185
330
17
100
AcDbEntity
  8
0
100
AcDbLine
 10
1470.685605
 20
581.040648
 30
0.0
 11
1465.685721
 21
606.040648
 31
0.0
  0
LINE
  5
186
330
17
100
AcDbEntity
  8
0
100
AcDbLine
 10
1015.685721
 20
576.040648
 30
0.0
 11
1015.685721
 21
716.040648
 31
0.0
  0
LINE
  5
187
330
17
100
AcDbEntity
  8
0
100
AcDbLine
 10
1025.685721
 20
566.040648
 30
0.0
 11
1025.685721
 21
716.040648
 31
0.0
  0
LINE
  5
188
330
17
100
AcDbEntity
  8
0
100
AcDbLine
 10
395.685721
 20
446.040648
 30
0.0
 11
650.685721
 21
446.040648
 31
0.0
  0
LINE
  5
189
330
17
100
AcDbEntity
  8
0
100
AcDbLine
 10
740.685721
 20
446.040648
 30
0.0
 11
745.685721
 21
446.040648
 31
0.0
  0
LINE
  5
18A
330
17
100
AcDbEntity
  8
0
100
AcDbLine
 10
755.685721
 20
446.040648
 30
0.0
 11
1005.685721
 21
446.040648
 31
0.0
  0
LINE
  5
18B
330
17
100
AcDbEntity
  8
0
100
AcDbLine
 10
1095.685721
 20
446.040648
 30
0.0
 11
1105.685721
 21
446.040648
 31
0.0
  0
LINE
  5
18C
330
17
100
AcDbEntity
  8
0
100
AcDbLine
 10
385.685721
 20
456.040648
 30
0.0
 11
580.685721
 21
456.040648
 31
0.0
  0
LINE
  5
18D
330
17
100
AcDbEntity
  8
0
100
AcDbLine
 10
590.685721
 20
456.040648
 30
0.0
 11
650.685721
 21
456.040648
 31
0.0
  0
LINE
  5
18E
330
17
100
AcDbEntity
  8
0
100
AcDbLine
 10
740.685721
 20
456.040648
 30
0.0
 11
1005.685721
 21
456.040648
 31
0.0
  0
LINE
  5
18F
330
17
100
AcDbEntity
  8
0
100
AcDbLine
 10
1095.685721
 20
456.040648
 30
0.0
 11
1105.685721
 21
456.040648
 31
0.0
  0
LINE
  5
190
330
17
100
AcDbEntity
  8
0
100
AcDbLine
 10
580.685721
 20
481.040648
 30
0.0
 11
590.685721
 21
481.040648
 31
0.0
  0
LINE
  5
191
330
17
100
AcDbEntity
  8
0
100
AcDbLine
 10
590.685721
 20
576.040648
 30
0.0
 11
595.685721
 21
576.040648
 31
0.0
  0
LINE
  5
192
330
17
100
AcDbEntity
  8
0
100
AcDbLine
 10
700.685721
 20
566.040648
 30
0.0
 11
810.685721
 21
566.040648
 31
0.0
  0
LINE
  5
193
330
17
100
AcDbEntity
  8
0
100
AcDbLine
 10
890.685721
 20
566.040648
 30
0.0
 11
1025.685721
 21
566.040648
 31
0.0
  0
LINE
  5
194
330
17
100
AcDbEntity
  8
0
100
AcDbLine
 10
580.685721
 20
571.040648
 30
0.0
 11
590.685721
 21
571.040648
 31
0.0
  0
LINE
  5
195
330
17
100
AcDbEntity
  8
0
100
AcDbLine
 10
1285.685721
 20
556.040648
 30
0.0
 11
1445.685721
 21
556.040648
 31
0.0
  0
LINE
  5
196
330
17
100
AcDbEntity
  8
0
100
AcDbLine
 10
590.685721
 20
586.040648
 30
0.0
 11
595.685721
 21
586.040648
 31
0.0
  0
LINE
  5
197
330
17
100
AcDbEntity
  8
0
100
AcDbLine
 10
675.685721
 20
586.040648
 30
0.0
 11
700.685721
 21
586.040648
 31
0.0
  0
LINE
  5
198
330
17
100
AcDbEntity
  8
0
100
AcDbLine
 10
675.685721
 20
576.040648
 30
0.0
 11
700.685721
 21
576.040648
 31
0.0
  0
LINE
  5
199
330
17
100
AcDbEntity
  8
0
100
AcDbLine
 10
710.685721
 20
576.040648
 30
0.0
 11
810.685721
 21
576.040648
 31
0.0
  0
LINE
  5
19A
330
17
100
AcDbEntity
  8
0
100
AcDbLine
 10
890.685721
 20
576.040648
 30
0.0
 11
1015.685721
 21
576.040648
 31
0.0
  0
LINE
  5
19B
330
17
100
AcDbEntity
  8
0
100
AcDbLine
 10
1295.685721
 20
566.040648
 30
0.0
 11
1445.685721
 21
566.040648
 31
0.0
  0
LINE
  5
19C
330
17
100
AcDbEntity
  8
0
100
AcDbLine
 10
55.685721
 20
716.040648
 30
0.0
 11
325.785794
 21
716.040648
 31
0.0
  0
LINE
  5
19D
330
17
100
AcDbEntity
  8
0
100
AcDbLine
 10
415.785828
 20
716.140717
 30
0.0
 11
580.685721
 21
716.040648
 31
0.0
  0
LINE
  5
19E
330
17
100
AcDbEntity
  8
0
100
AcDbLine
 10
590.685721
 20
716.040648
 30
0.0
 11
780.748113
 21
716.040648
 31
0.0
  0
LINE
  5
19F
330
17
100
AcDbEntity
  8
0
100
AcDbLine
 10
755.685721
 20
716.040648
 30
0.0
 11
1015.685721
 21
716.040648
 31
0.0
  0
LINE
  5
1A0
330
17
100
AcDbEntity
  8
0
100
AcDbLine
 10
1115.685721
 20
716.040648
 30
0.0
 11
1445.685721
 21
716.040648
 31
0.0
  0
LINE
  5
1A1
330
17
100
AcDbEntity
  8
0
100
AcDbLine
 10
55.685721
 20
296.040648
 30
0.0
 11
140.685721
 21
296.040648
 31
0.0
  0
LINE
  5
1A2
330
17
100
AcDbEntity
  8
0
100
AcDbLine
 10
320.685721
 20
296.040648
 30
0.0
 11
370.685721
 21
296.040648
 31
0.0
  0
LINE
  5
1A3
330
17
100
AcDbEntity
  8
0
100
AcDbLine
 10
55.685721
 20
316.040648
 30
0.0
 11
140.685721
 21
316.040648
 31
0.0
  0
LINE
  5
1A4
330
17
100
AcDbEntity
  8
0
100
AcDbLine
 10
320.685721
 20
316.040648
 30
0.0
 11
370.685721
 21
316.040648
 31
0.0
  0
LINE
  5
1A5
330
17
100
AcDbEntity
  8
0
100
AcDbLine
 10
595.685721
 20
576.040648
 30
0.0
 11
595.685721
 21
586.040648
 31
0.0
  0
LINE
  5
1A6
330
17
100
AcDbEntity
  8
0
100
AcDbLine
 10
1205.685721
 20
231.040648
 30
0.0
 11
1205.685721
 21
211.040648
 31
0.0
  0
LINE
  5
1A7
330
17
100
AcDbEntity
  8
0
100
AcDbLine
 10
1345.685721
 20
231.040648
 30
0.0
 11
1345.685721
 21
211.040648
 31
0.0
  0
LINE
  5
1A8
330
17
100
AcDbEntity
  8
0
100
AcDbLine
 10
845.685721
 20
186.040648
 30
0.0
 11
845.685721
 21
166.040648
 31
0.0
  0
LINE
  5
1A9
330
17
100
AcDbEntity
  8
0
100
AcDbLine
 10
985.685721
 20
186.040648
 30
0.0
 11
985.685721
 21
166.040648
 31
0.0
  0
LINE
  5
1AA
330
17
100
AcDbEntity
  8
0
100
AcDbLine
 10
695.657649
 20
186.040648
 30
0.0
 11
695.657649
 21
166.040648
 31
0.0
  0
LINE
  5
1AB
330
17
100
AcDbEntity
  8
0
100
AcDbLine
 10
25.685721
 20
681.040648
 30
0.0
 11
25.685721
 21
596.040648
 31
0.0
  0
LINE
  5
1AC
330
17
100
AcDbEntity
  8
0
100
AcDbLine
 10
1465.685721
 20
726.040648
 30
0.0
 11
1465.685721
 21
706.040648
 31
0.0
  0
LWPOLYLINE
  5
1AD
330
17
100
AcDbEntity
  8
0
100
AcDbPolyline
 90
2
 70
0
 10
685.685721
 20
676.040648
 10
765.685721
 20
676.040648
  0
LWPOLYLINE
  5
1AE
330
17
100
AcDbEntity
  8
0
100
AcDbPolyline
 90
3
 70
0
 10
765.685721
 20
676.040648
 10
765.685721
 20
666.040648
 10
710.685721
 20
666.040648
  0
LWPOLYLINE
  5
1AF
330
17
100
AcDbEntity
  8
0
100
AcDbPolyline
 90
3
 70
0
 10
700.685721
 20
666.040648
 10
685.685721
 20
666.040648
 10
685.685721
 20
676.040648
  0
LINE
  5
1B0
330
17
100
AcDbEntity
  8
0
100
AcDbLine
 10
3155.685721
 20
1096.040648
 30
0.0
 11
3155.685721
 21
1056.040648
 31
0.0
  0
LINE
  5
1B1
330
17
100
AcDbEntity
  8
0
100
AcDbLine
 10
3135.685721
 20
1096.040648
 30
0.0
 11
3135.685721
 21
1056.040648
 31
0.0
  0
LINE
  5
1B2
330
17
100
AcDbEntity
  8
0
100
AcDbLine
 10
3135.685721
 20
856.040648
 30
0.0
 11
3135.685721
 21
771.040648
 31
0.0
  0
LINE
  5
1B3
330
17
100
AcDbEntity
  8
0
100
AcDbLine
 10
2795.685721
 20
1106.140712
 30
0.0
 11
2795.685721
 21
996.040648
 31
0.0
  0
LINE
  5
1B4
330
17
100
AcDbEntity
  8
0
100
AcDbLine
 10
2785.685721
 20
1106.140712
 30
0.0
 11
2785.685721
 21
1006.040648
 31
0.0
  0
LINE
  5
1B5
330
17
100
AcDbEntity
  8
0
100
AcDbLine
 10
2750.685721
 20
1286.040648
 30
0.0
 11
2645.713794
 21
1286.040648
 31
0.0
  0
LINE
  5
1B6
330
17
100
AcDbEntity
  8
0
100
AcDbLine
 10
2505.713794
 20
1286.040648
 30
0.0
 11
2335.685721
 21
1286.040648
 31
0.0
  0
LINE
  5
1B7
330
17
100
AcDbEntity
  8
0
100
AcDbLine
 10
2195.685721
 20
1286.040648
 30
0.0
 11
2155.685721
 21
1286.040648
 31
0.0
  0
LINE
  5
1B8
330
17
100
AcDbEntity
  8
0
100
AcDbLine
 10
2750.685721
 20
1266.040648
 30
0.0
 11
2645.713794
 21
1266.040648
 31
0.0
  0
LINE
  5
1B9
330
17
100
AcDbEntity
  8
0
100
AcDbLine
 10
2505.713794
 20
1266.040648
 30
0.0
 11
2435.685721
 21
1266.040648
 31
0.0
  0
LINE
  5
1BA
330
17
100
AcDbEntity
  8
0
100
AcDbLine
 10
2425.685721
 20
1266.040648
 30
0.0
 11
2335.685721
 21
1266.040648
 31
0.0
  0
LINE
  5
1BB
330
17
100
AcDbEntity
  8
0
100
AcDbLine
 10
2195.685721
 20
1266.040648
 30
0.0
 11
2155.685721
 21
1266.040648
 31
0.0
  0
LINE
  5
1BC
330
17
100
AcDbEntity
  8
0
100
AcDbLine
 10
2435.685721
 20
1266.040648
 30
0.0
 11
2435.685721
 21
1006.040648
 31
0.0
  0
LINE
  5
1BD
330
17
100
AcDbEntity
  8
0
100
AcDbLine
 10
2480.685721
 20
886.040648
 30
0.0
 11
2480.685721
 21
876.040648
 31
0.0
  0
LINE
  5
1BE
330
17
100
AcDbEntity
  8
0
100
AcDbLine
 10
2480.685721
 20
866.040648
 30
0.0
 11
2480.685721
 21
786.040648
 31
0.0
  0
LINE
  5
1BF
330
17
100
AcDbEntity
  8
0
100
AcDbLine
 10
2425.685721
 20
1266.040648
 30
0.0
 11
2425.685721
 21
1006.040648
 31
0.0
  0
LINE
  5
1C0
330
17
100
AcDbEntity
  8
0
100
AcDbLine
 10
2470.685721
 20
876.040648
 30
0.0
 11
2470.685721
 21
786.040648
 31
0.0
  0
LINE
  5
1C1
330
17
100
AcDbEntity
  8
0
100
AcDbLine
 10
2600.685721
 20
996.040648
 30
0.0
 11
2600.685721
 21
971.040648
 31
0.0
  0
LINE
  5
1C2
330
17
100
AcDbEntity
  8
0
100
AcDbLine
 10
2600.685721
 20
881.040648
 30
0.0
 11
2600.685721
 21
736.040648
 31
0.0
  0
LINE
  5
1C3
330
17
100
AcDbEntity
  8
0
100
AcDbLine
 10
2590.685721
 20
996.040648
 30
0.0
 11
2590.685721
 21
971.040648
 31
0.0
  0
LINE
  5
1C4
330
17
100
AcDbEntity
  8
0
100
AcDbLine
 10
2590.685721
 20
881.040648
 30
0.0
 11
2590.685721
 21
876.040648
 31
0.0
  0
LINE
  5
1C5
330
17
100
AcDbEntity
  8
0
100
AcDbLine
 10
2590.685721
 20
866.040648
 30
0.0
 11
2590.685721
 21
736.040648
 31
0.0
  0
LINE
  5
1C6
330
17
100
AcDbEntity
  8
0
100
AcDbLine
 10
2075.685721
 20
1256.040648
 30
0.0
 11
2075.685721
 21
1006.040648
 31
0.0
  0
LINE
  5
1C7
330
17
100
AcDbEntity
  8
0
100
AcDbLine
 10
1735.685721
 20
1196.040648
 30
0.0
 11
1735.685721
 21
901.140743
 31
0.0
  0
LINE
  5
1C8
330
17
100
AcDbEntity
  8
0
100
AcDbLine
 10
1735.685721
 20
746.040648
 30
0.0
 11
1735.685721
 21
736.040648
 31
0.0
  0
LINE
  5
1C9
330
17
100
AcDbEntity
  8
0
100
AcDbLine
 10
1885.685721
 20
886.040648
 30
0.0
 11
1885.685721
 21
846.040648
 31
0.0
  0
LINE
  5
1CA
330
17
100
AcDbEntity
  8
0
100
AcDbLine
 10
1895.685721
 20
896.040648
 30
0.0
 11
1895.685721
 21
856.040648
 31
0.0
  0
LINE
  5
1CB
330
17
100
AcDbEntity
  8
0
100
AcDbLine
 10
1715.685721
 20
1196.040648
 30
0.0
 11
1715.685721
 21
901.140743
 31
0.0
  0
LINE
  5
1CC
330
17
100
AcDbEntity
  8
0
100
AcDbLine
 10
2165.685721
 20
876.040648
 30
0.0
 11
2165.685721
 21
736.040648
 31
0.0
  0
LINE
  5
1CD
330
17
100
AcDbEntity
  8
0
100
AcDbLine
 10
2155.685721
 20
886.040648
 30
0.0
 11
2155.685721
 21
736.040648
 31
0.0
  0
LINE
  5
1CE
330
17
100
AcDbEntity
  8
0
100
AcDbLine
 10
2785.685721
 20
1006.040648
 30
0.0
 11
2530.685721
 21
1006.040648
 31
0.0
  0
LINE
  5
1CF
330
17
100
AcDbEntity
  8
0
100
AcDbLine
 10
2440.685721
 20
1006.040648
 30
0.0
 11
2435.685721
 21
1006.040648
 31
0.0
  0
LINE
  5
1D0
330
17
100
AcDbEntity
  8
0
100
AcDbLine
 10
2425.685721
 20
1006.040648
 30
0.0
 11
2175.685721
 21
1006.040648
 31
0.0
  0
LINE
  5
1D1
330
17
100
AcDbEntity
  8
0
100
AcDbLine
 10
2085.685721
 20
1006.040648
 30
0.0
 11
2075.685721
 21
1006.040648
 31
0.0
  0
LINE
  5
1D2
330
17
100
AcDbEntity
  8
0
100
AcDbLine
 10
2795.685721
 20
996.040648
 30
0.0
 11
2600.685721
 21
996.040648
 31
0.0
  0
LINE
  5
1D3
330
17
100
AcDbEntity
  8
0
100
AcDbLine
 10
2590.685721
 20
996.040648
 30
0.0
 11
2530.685721
 21
996.040648
 31
0.0
  0
LINE
  5
1D4
330
17
100
AcDbEntity
  8
0
100
AcDbLine
 10
2440.685721
 20
996.040648
 30
0.0
 11
2175.685721
 21
996.040648
 31
0.0
  0
LINE
  5
1D5
330
17
100
AcDbEntity
  8
0
100
AcDbLine
 10
2085.685721
 20
996.040648
 30
0.0
 11
2075.685721
 21
996.040648
 31
0.0
  0
LINE
  5
1D6
330
17
100
AcDbEntity
  8
0
100
AcDbLine
 10
2590.685721
 20
876.040648
 30
0.0
 11
2585.685721
 21
876.040648
 31
0.0
  0
LINE
  5
1D7
330
17
100
AcDbEntity
  8
0
100
AcDbLine
 10
2480.685721
 20
886.040648
 30
0.0
 11
2370.685721
 21
886.040648
 31
0.0
  0
LINE
  5
1D8
330
17
100
AcDbEntity
  8
0
100
AcDbLine
 10
2290.685721
 20
886.040648
 30
0.0
 11
2155.685721
 21
886.040648
 31
0.0
  0
LINE
  5
1D9
330
17
100
AcDbEntity
  8
0
100
AcDbLine
 10
1895.685721
 20
896.040648
 30
0.0
 11
1745.785841
 21
896.040648
 31
0.0
  0
LINE
  5
1DA
330
17
100
AcDbEntity
  8
0
100
AcDbLine
 10
2590.685721
 20
866.040648
 30
0.0
 11
2585.685721
 21
866.040648
 31
0.0
  0
LINE
  5
1DB
330
17
100
AcDbEntity
  8
0
100
AcDbLine
 10
2505.685721
 20
876.040648
 30
0.0
 11
2480.685721
 21
876.040648
 31
0.0
  0
LINE
  5
1DC
330
17
100
AcDbEntity
  8
0
100
AcDbLine
 10
2505.685721
 20
866.040648
 30
0.0
 11
2480.685721
 21
866.040648
 31
0.0
  0
LINE
  5
1DD
330
17
100
AcDbEntity
  8
0
100
AcDbLine
 10
2470.685721
 20
876.040648
 30
0.0
 11
2370.685721
 21
876.040648
 31
0.0
  0
LINE
  5
1DE
330
17
100
AcDbEntity
  8
0
100
AcDbLine
 10
2290.685721
 20
876.040648
 30
0.0
 11
2165.685721
 21
876.040648
 31
0.0
  0
LINE
  5
1DF
330
17
100
AcDbEntity
  8
0
100
AcDbLine
 10
1885.685721
 20
886.040648
 30
0.0
 11
1745.785841
 21
886.040648
 31
0.0
  0
LINE
  5
1E0
330
17
100
AcDbEntity
  8
0
100
AcDbLine
 10
3125.685721
 20
736.040648
 30
0.0
 11
2855.785855
 21
736.140717
 31
0.0
  0
LINE
  5
1E1
330
17
100
AcDbEntity
  8
0
100
AcDbLine
 10
2765.785822
 20
736.140717
 30
0.0
 11
2600.685721
 21
736.040648
 31
0.0
  0
LINE
  5
1E2
330
17
100
AcDbEntity
  8
0
100
AcDbLine
 10
2590.685721
 20
736.040648
 30
0.0
 11
2361.929071
 21
736.040648
 31
0.0
  0
LINE
  5
1E3
330
17
100
AcDbEntity
  8
0
100
AcDbLine
 10
2425.685721
 20
736.040648
 30
0.0
 11
2165.685721
 21
736.040648
 31
0.0
  0
LINE
  5
1E4
330
17
100
AcDbEntity
  8
0
100
AcDbLine
 10
2155.685721
 20
736.040648
 30
0.0
 11
2155.685791
 21
736.040648
 31
0.0
  0
LINE
  5
1E5
330
17
100
AcDbEntity
  8
0
100
AcDbLine
 10
2065.685721
 20
736.040648
 30
0.0
 11
1735.685721
 21
736.040648
 31
0.0
  0
LINE
  5
1E6
330
17
100
AcDbEntity
  8
0
100
AcDbLine
 10
3125.685721
 20
1156.040648
 30
0.0
 11
3040.685721
 21
1156.040648
 31
0.0
  0
LINE
  5
1E7
330
17
100
AcDbEntity
  8
0
100
AcDbLine
 10
2860.685721
 20
1156.040648
 30
0.0
 11
2810.685721
 21
1156.040648
 31
0.0
  0
LINE
  5
1E8
330
17
100
AcDbEntity
  8
0
100
AcDbLine
 10
3125.685721
 20
1136.040648
 30
0.0
 11
3040.685721
 21
1136.040648
 31
0.0
  0
LINE
  5
1E9
330
17
100
AcDbEntity
  8
0
100
AcDbLine
 10
2860.685721
 20
1136.040648
 30
0.0
 11
2810.685721
 21
1136.040648
 31
0.0
  0
LWPOLYLINE
  5
1EA
330
17
100
AcDbEntity
  8
0
100
AcDbPolyline
 90
4
 70
0
 10
3155.685721
 20
1156.040648
 10
3155.685721
 20
1386.040648
 10
2795.685721
 20
1386.040648
 10
2795.685721
 20
1286.040648
  0
LWPOLYLINE
  5
1EB
330
17
100
AcDbEntity
  8
0
100
AcDbPolyline
 90
4
 70
0
 10
3145.685721
 20
1156.040648
 10
3145.685721
 20
1376.040648
 10
2805.685721
 20
1376.040648
 10
2805.685721
 20
1286.040648
  0
LINE
  5
1EC
330
17
100
AcDbEntity
  8
0
100
AcDbLine
 10
3135.685721
 20
1056.040648
 30
0.0
 11
3155.685721
 21
1056.040648
 31
0.0
  0
LINE
  5
1ED
330
17
100
AcDbEntity
  8
0
100
AcDbLine
 10
2645.713794
 20
1266.040648
 30
0.0
 11
2645.713794
 21
1286.040648
 31
0.0
  0
LINE
  5
1EE
330
17
100
AcDbEntity
  8
0
100
AcDbLine
 10
2505.713794
 20
1266.040648
 30
0.0
 11
2505.713794
 21
1286.040648
 31
0.0
  0
LINE
  5
1EF
330
17
100
AcDbEntity
  8
0
100
AcDbLine
 10
3155.685721
 20
771.040648
 30
0.0
 11
3155.685721
 21
856.040648
 31
0.0
  0
LINE
  5
1F0
330
17
100
AcDbEntity
  8
0
100
AcDbLine
 10
1715.685721
 20
726.040648
 30
0.0
 11
1715.685721
 21
746.040648
 31
0.0
  0
LWPOLYLINE
  5
1F1
330
17
100
AcDbEntity
  8
0
100
AcDbPolyline
 90
2
 70
0
 10
2495.685721
 20
776.040648
 10
2415.685721
 20
776.040648
  0
LWPOLYLINE
  5
1F2
330
17
100
AcDbEntity
  8
0
100
AcDbPolyline
 90
3
 70
0
 10
2415.685721
 20
776.040648
 10
2415.685721
 20
786.040648
 10
2470.685721
 20
786.040648
  0
LWPOLYLINE
  5
1F3
330
17
100
AcDbEntity
  8
0
100
AcDbPolyline
 90
3
 70
0
 10
2480.685721
 20
786.040648
 10
2495.685721
 20
786.040648
 10
2495.685721
 20
776.040648
  0
LINE
  5
1F4
330
17
100
AcDbEntity
  8
0
100
AcDbLine
 10
3155.685721
 20
356.040648
 30
0.0
 11
3155.685721
 21
396.040648
 31
0.0
  0
LINE
  5
1F5
330
17
100
AcDbEntity
  8
0
100
AcDbLine
 10
3135.685721
 20
356.040648
 30
0.0
 11
3135.685721
 21
396.040648
 31
0.0
  0
LINE
  5
1F6
330
17
100
AcDbEntity
  8
0
100
AcDbLine
 10
3135.685721
 20
596.040648
 30
0.0
 11
3135.685721
 21
681.040648
 31
0.0
  0
LINE
  5
1F7
330
17
100
AcDbEntity
  8
0
100
AcDbLine
 10
2795.785862
 20
346.140736
 30
0.0
 11
2795.685721
 21
456.040648
 31
0.0
  0
LINE
  5
1F8
330
17
100
AcDbEntity
  8
0
100
AcDbLine
 10
2785.785862
 20
346.140736
 30
0.0
 11
2785.685721
 21
446.040648
 31
0.0
  0
LINE
  5
1F9
330
17
100
AcDbEntity
  8
0
100
AcDbLine
 10
2750.685721
 20
166.040648
 30
0.0
 11
2645.713794
 21
166.040648
 31
0.0
  0
LINE
  5
1FA
330
17
100
AcDbEntity
  8
0
100
AcDbLine
 10
2505.713794
 20
166.040648
 30
0.0
 11
2335.685721
 21
166.040648
 31
0.0
  0
LINE
  5
1FB
330
17
100
AcDbEntity
  8
0
100
AcDbLine
 10
2195.685721
 20
166.040648
 30
0.0
 11
2155.685721
 21
166.040648
 31
0.0
  0
LINE
  5
1FC
330
17
100
AcDbEntity
  8
0
100
AcDbLine
 10
2750.685721
 20
186.040648
 30
0.0
 11
2645.713794
 21
186.040648
 31
0.0
  0
LINE
  5
1FD
330
17
100
AcDbEntity
  8
0
100
AcDbLine
 10
2505.713794
 20
186.040648
 30
0.0
 11
2435.685721
 21
186.040648
 31
0.0
  0
LINE
  5
1FE
330
17
100
AcDbEntity
  8
0
100
AcDbLine
 10
2425.685721
 20
186.040648
 30
0.0
 11
2335.685721
 21
186.040648
 31
0.0
  0
LINE
  5
1FF
330
17
100
AcDbEntity
  8
0
100
AcDbLine
 10
2195.685721
 20
186.040648
 30
0.0
 11
2155.685721
 21
186.040648
 31
0.0
  0
LINE
  5
200
330
17
100
AcDbEntity
  8
0
100
AcDbLine
 10
2435.685721
 20
186.040648
 30
0.0
 11
2435.685721
 21
446.040648
 31
0.0
  0
LINE
  5
201
330
17
100
AcDbEntity
  8
0
100
AcDbLine
 10
2480.685721
 20
566.040648
 30
0.0
 11
2480.685721
 21
576.040648
 31
0.0
  0
LINE
  5
202
330
17
100
AcDbEntity
  8
0
100
AcDbLine
 10
2480.685721
 20
586.040648
 30
0.0
 11
2480.685721
 21
666.040648
 31
0.0
  0
LINE
  5
203
330
17
100
AcDbEntity
  8
0
100
AcDbLine
 10
2425.685721
 20
186.040648
 30
0.0
 11
2425.685721
 21
446.040648
 31
0.0
  0
LINE
  5
204
330
17
100
AcDbEntity
  8
0
100
AcDbLine
 10
2470.685721
 20
576.040648
 30
0.0
 11
2470.685721
 21
666.040648
 31
0.0
  0
LINE
  5
205
330
17
100
AcDbEntity
  8
0
100
AcDbLine
 10
2600.685721
 20
456.040648
 30
0.0
 11
2600.685721
 21
481.040648
 31
0.0
  0
LINE
  5
206
330
17
100
AcDbEntity
  8
0
100
AcDbLine
 10
2600.685721
 20
571.040648
 30
0.0
 11
2600.685721
 21
716.040648
 31
0.0
  0
LINE
  5
207
330
17
100
AcDbEntity
  8
0
100
AcDbLine
 10
2590.685721
 20
456.040648
 30
0.0
 11
2590.685721
 21
481.040648
 31
0.0
  0
LINE
  5
208
330
17
100
AcDbEntity
  8
0
100
AcDbLine
 10
2590.685721
 20
571.040648
 30
0.0
 11
2590.685721
 21
576.040648
 31
0.0
  0
LINE
  5
209
330
17
100
AcDbEntity
  8
0
100
AcDbLine
 10
2590.685721
 20
586.040648
 30
0.0
 11
2590.685721
 21
716.040648
 31
0.0
  0
LINE
  5
20A
330
17
100
AcDbEntity
  8
0
100
AcDbLine
 10
2075.685721
 20
196.040648
 30
0.0
 11
2075.685721
 21
446.040648
 31
0.0
  0
LINE
  5
20B
330
17
100
AcDbEntity
  8
0
100
AcDbLine
 10
1735.685721
 20
581.040648
 30
0.0
 11
1735.685721
 21
606.040648
 31
0.0
  0
LINE
  5
20C
330
17
100
AcDbEntity
  8
0
100
AcDbLine
 10
1735.685721
 20
706.040648
 30
0.0
 11
1735.685721
 21
716.040648
 31
0.0
  0
LINE
  5
20D
330
17
100
AcDbEntity
  8
0
100
AcDbLine
 10
1885.685721
 20
566.040648
 30
0.0
 11
1885.685721
 21
606.040648
 31
0.0
  0
LINE
  5
20E
330
17
100
AcDbEntity
  8
0
100
AcDbLine
 10
1895.685721
 20
556.040648
 30
0.0
 11
1895.685721
 21
596.040648
 31
0.0
  0
LINE
  5
20F
330
17
100
AcDbEntity
  8
0
100
AcDbLine
 10
1715.685721
 20
581.040648
 30
0.0
 11
1715.685721
 21
606.040648
 31
0.0
  0
LINE
  5
210
330
17
100
AcDbEntity
  8
0
100
AcDbLine
 10
2165.685721
 20
576.040648
 30
0.0
 11
2165.685721
 21
716.040648
 31
0.0
  0
LINE
  5
211
330
17
100
AcDbEntity
  8
0
100
AcDbLine
 10
2155.685721
 20
566.040648
 30
0.0
 11
2155.685721
 21
716.040648
 31
0.0
  0
LINE
  5
212
330
17
100
AcDbEntity
  8
0
100
AcDbLine
 10
2785.685721
 20
446.040648
 30
0.0
 11
2530.685721
 21
446.040648
 31
0.0
  0
LINE
  5
213
330
17
100
AcDbEntity
  8
0
100
AcDbLine
 10
2440.685721
 20
446.040648
 30
0.0
 11
2435.685721
 21
446.040648
 31
0.0
  0
LINE
  5
214
330
17
100
AcDbEntity
  8
0
100
AcDbLine
 10
2425.685721
 20
446.040648
 30
0.0
 11
2175.685721
 21
446.040648
 31
0.0
  0
LINE
  5
215
330
17
100
AcDbEntity
  8
0
100
AcDbLine
 10
2085.685721
 20
446.040648
 30
0.0
 11
2075.685721
 21
446.040648
 31
0.0
  0
LINE
  5
216
330
17
100
AcDbEntity
  8
0
100
AcDbLine
 10
2795.685721
 20
456.040648
 30
0.0
 11
2600.685721
 21
456.040648
 31
0.0
  0
LINE
  5
217
330
17
100
AcDbEntity
  8
0
100
AcDbLine
 10
2590.685721
 20
456.040648
 30
0.0
 11
2530.685721
 21
456.040648
 31
0.0
  0
LINE
  5
218
330
17
100
AcDbEntity
  8
0
100
AcDbLine
 10
2440.685721
 20
456.040648
 30
0.0
 11
2175.685721
 21
456.040648
 31
0.0
  0
LINE
  5
219
330
17
100
AcDbEntity
  8
0
100
AcDbLine
 10
2085.685721
 20
456.040648
 30
0.0
 11
2075.685721
 21
456.040648
 31
0.0
  0
LINE
  5
21A
330
17
100
AcDbEntity
  8
0
100
AcDbLine
 10
2590.685721
 20
576.040648
 30
0.0
 11
2585.685721
 21
576.040648
 31
0.0
  0
LINE
  5
21B
330
17
100
AcDbEntity
  8
0
100
AcDbLine
 10
2480.685721
 20
566.040648
 30
0.0
 11
2370.685721
 21
566.040648
 31
0.0
  0
LINE
  5
21C
330
17
100
AcDbEntity
  8
0
100
AcDbLine
 10
2505.685721
 20
576.040648
 30
0.0
 11
2480.685721
 21
576.040648
 31
0.0
  0
LINE
  5
21D
330
17
100
AcDbEntity
  8
0
100
AcDbLine
 10
2290.685721
 20
566.040648
 30
0.0
 11
2155.685721
 21
566.040648
 31
0.0
  0
LINE
  5
21E
330
17
100
AcDbEntity
  8
0
100
AcDbLine
 10
1895.685721
 20
556.040648
 30
0.0
 11
1735.685721
 21
556.040648
 31
0.0
  0
LINE
  5
21F
330
17
100
AcDbEntity
  8
0
100
AcDbLine
 10
2590.685721
 20
586.040648
 30
0.0
 11
2585.685721
 21
586.040648
 31
0.0
  0
LINE
  5
220
330
17
100
AcDbEntity
  8
0
100
AcDbLine
 10
2505.685721
 20
586.040648
 30
0.0
 11
2480.685721
 21
586.040648
 31
0.0
  0
LINE
  5
221
330
17
100
AcDbEntity
  8
0
100
AcDbLine
 10
2470.685721
 20
576.040648
 30
0.0
 11
2370.685721
 21
576.040648
 31
0.0
  0
LINE
  5
222
330
17
100
AcDbEntity
  8
0
100
AcDbLine
 10
2290.685721
 20
576.040648
 30
0.0
 11
2165.685721
 21
576.040648
 31
0.0
  0
LINE
  5
223
330
17
100
AcDbEntity
  8
0
100
AcDbLine
 10
1885.685721
 20
566.040648
 30
0.0
 11
1735.685721
 21
566.040648
 31
0.0
  0
LINE
  5
224
330
17
100
AcDbEntity
  8
0
100
AcDbLine
 10
3125.685721
 20
716.040648
 30
0.0
 11
2855.785855
 21
716.140717
 31
0.0
  0
LINE
  5
225
330
17
100
AcDbEntity
  8
0
100
AcDbLine
 10
2765.785822
 20
716.140717
 30
0.0
 11
2600.685721
 21
716.040648
 31
0.0
  0
LINE
  5
226
330
17
100
AcDbEntity
  8
0
100
AcDbLine
 10
2590.685721
 20
716.040648
 30
0.0
 11
2361.929071
 21
716.040648
 31
0.0
  0
LINE
  5
227
330
17
100
AcDbEntity
  8
0
100
AcDbLine
 10
2425.685721
 20
716.040648
 30
0.0
 11
2165.685721
 21
716.040648
 31
0.0
  0
LINE
  5
228
330
17
100
AcDbEntity
  8
0
100
AcDbLine
 10
2155.685721
 20
716.040648
 30
0.0
 11
2155.685791
 21
716.040648
 31
0.0
  0
LINE
  5
229
330
17
100
AcDbEntity
  8
0
100
AcDbLine
 10
2065.685721
 20
716.040648
 30
0.0
 11
1735.685721
 21
716.040648
 31
0.0
  0
LINE
  5
22A
330
17
100
AcDbEntity
  8
0
100
AcDbLine
 10
3125.685721
 20
296.040648
 30
0.0
 11
3040.685721
 21
296.040648
 31
0.0
  0
LINE
  5
22B
330
17
100
AcDbEntity
  8
0
100
AcDbLine
 10
2860.685721
 20
296.040648
 30
0.0
 11
2810.685721
 21
296.040648
 31
0.0
  0
LINE
  5
22C
330
17
100
AcDbEntity
  8
0
100
AcDbLine
 10
3125.685721
 20
316.040648
 30
0.0
 11
3040.685721
 21
316.040648
 31
0.0
  0
LINE
  5
22D
330
17
100
AcDbEntity
  8
0
100
AcDbLine
 10
2860.685721
 20
316.040648
 30
0.0
 11
2810.685721
 21
316.040648
 31
0.0
  0
LWPOLYLINE
  5
22E
330
17
100
AcDbEntity
  8
0
100
AcDbPolyline
 90
4
 70
0
 10
3155.685721
 20
296.040648
 10
3155.685721
 20
136.040648
 10
2795.685721
 20
136.040648
 10
2795.685721
 20
166.040648
  0
LWPOLYLINE
  5
22F
330
17
100
AcDbEntity
  8
0
100
AcDbPolyline
 90
4
 70
0
 10
3145.685721
 20
296.040648
 10
3145.685721
 20
146.040648
 10
2805.685721
 20
146.040648
 10
2805.685721
 20
166.040648
  0
LINE
  5
230
330
17
100
AcDbEntity
  8
0
100
AcDbLine
 10
3135.685721
 20
596.040648
 30
0.0
 11
3155.685721
 21
596.040648
 31
0.0
  0
LINE
  5
231
330
17
100
AcDbEntity
  8
0
100
AcDbLine
 10
3135.685721
 20
396.040648
 30
0.0
 11
3155.685721
 21
396.040648
 31
0.0
  0
LINE
  5
232
330
17
100
AcDbEntity
  8
0
100
AcDbLine
 10
2645.713794
 20
186.040648
 30
0.0
 11
2645.713794
 21
166.040648
 31
0.0
  0
LINE
  5
233
330
17
100
AcDbEntity
  8
0
100
AcDbLine
 10
2505.713794
 20
186.040648
 30
0.0
 11
2505.713794
 21
166.040648
 31
0.0
  0
LINE
  5
234
330
17
100
AcDbEntity
  8
0
100
AcDbLine
 10
2335.685721
 20
186.040648
 30
0.0
 11
2335.685721
 21
166.040648
 31
0.0
  0
LINE
  5
235
330
17
100
AcDbEntity
  8
0
100
AcDbLine
 10
2195.685721
 20
186.040648
 30
0.0
 11
2195.685721
 21
166.040648
 31
0.0
  0
LINE
  5
236
330
17
100
AcDbEntity
  8
0
100
AcDbLine
 10
3155.685721
 20
681.040648
 30
0.0
 11
3155.685721
 21
596.040648
 31
0.0
  0
LINE
  5
237
330
17
100
AcDbEntity
  8
0
100
AcDbLine
 10
1715.685721
 20
726.040648
 30
0.0
 11
1715.685721
 21
706.040648
 31
0.0
  0
LWPOLYLINE
  5
238
330
17
100
AcDbEntity
  8
0
100
AcDbPolyline
 90
2
 70
0
 10
2495.685721
 20
676.040648
 10
2415.685721
 20
676.040648
  0
LWPOLYLINE
  5
239
330
17
100
AcDbEntity
  8
0
100
AcDbPolyline
 90
3
 70
0
 10
2415.685721
 20
676.040648
 10
2415.685721
 20
666.040648
 10
2470.685721
 20
666.040648
  0
LWPOLYLINE
  5
23A
330
17
100
AcDbEntity
  8
0
100
AcDbPolyline
 90
3
 70
0
 10
2480.685721
 20
666.040648
 10
2495.685721
 20
666.040648
 10
2495.685721
 20
676.040648
  0
LWPOLYLINE
  5
23B
330
17
100
AcDbEntity
  8
0
100
AcDbPolyline
 90
4
 70
0
 10
420.685721
 20
172.26807
 10
420.685721
 20
26.040648
 10
825.685721
 20
26.040648
 10
825.685721
 20
166.040648
  0
LWPOLYLINE
  5
23C
330
17
100
AcDbEntity
  8
0
100
AcDbPolyline
 90
4
 70
0
 10
430.685721
 20
171.231103
 10
430.685721
 20
36.040648
 10
815.685721
 20
36.040648
 10
815.685721
 20
166.040648
  0
LWPOLYLINE
  5
23D
330
17
100
AcDbEntity
  8
0
100
AcDbPolyline
 90
4
 70
0
 10
1710.685721
 20
166.040648
 10
1710.685721
 20
26.040648
 10
2075.685721
 20
26.040648
 10
2075.685721
 20
166.040648
  0
LWPOLYLINE
  5
23E
330
17
100
AcDbEntity
  8
0
100
AcDbPolyline
 90
4
 70
0
 10
1720.685721
 20
166.040648
 10
1720.685721
 20
36.040648
 10
2065.685721
 20
36.040648
 10
2065.685721
 20
166.040648
  0
LINE
  5
23F
330
17
100
AcDbEntity
  8
0
100
AcDbLine
 10
1730.781349
 20
231.040648
 30
0.0
 11
1730.685721
 21
341.040648
 31
0.0
  0
LINE
  5
240
330
17
100
AcDbEntity
  8
0
100
AcDbLine
 10
1710.785695
 20
226.040655
 30
0.0
 11
1710.685721
 21
341.040648
 31
0.0
  0
LINE
  5
241
330
17
100
AcDbEntity
  8
0
100
AcDbLine
 10
1655.685721
 20
1226.040648
 30
0.0
 11
1655.685721
 21
1206.040648
 31
0.0
  0
LINE
  5
242
330
17
100
AcDbEntity
  8
0
100
AcDbLine
 10
1525.685721
 20
1226.040648
 30
0.0
 11
1525.685721
 21
1206.040648
 31
0.0
  0
LINE
  5
243
330
17
100
AcDbEntity
  8
0
100
AcDbLine
 10
1465.685721
 20
1162.922825
 30
0.0
 11
1508.803545
 21
1206.040648
 31
0.0
  0
LINE
  5
244
330
17
100
AcDbEntity
  8
0
100
AcDbLine
 10
1465.685721
 20
1148.780689
 30
0.0
 11
1522.94568
 21
1206.040648
 31
0.0
  0
LWPOLYLINE
  5
245
330
17
100
AcDbEntity
  8
0
100
AcDbPolyline
 90
4
 70
0
 10
560.685721
 20
976.040648
 10
580.685721
 20
976.040648
 10
580.685721
 20
996.040648
 10
560.685721
 20
996.040648
  0
LWPOLYLINE
  5
246
330
17
100
AcDbEntity
  8
0
100
AcDbPolyline
 90
4
 70
0
 10
2600.685721
 20
976.040648
 10
2620.685721
 20
976.040648
 10
2620.685721
 20
996.040648
 10
2600.685721
 20
996.040648
  0
LINE
  5
247
330
17
100
AcDbEntity
  8
0
100
AcDbLine
 10
700.685721
 20
576.040648
 30
0.0
 11
700.685721
 21
566.040648
 31
0.0
  0
LWPOLYLINE
  5
248
330
17
100
AcDbEntity
  8
0
100
AcDbPolyline
 90
4
 70
0
 10
560.685721
 20
476.040648
 10
580.685721
 20
476.040648
 10
580.685721
 20
456.040648
 10
560.685721
 20
456.040648
  0
LWPOLYLINE
  5
249
330
17
100
AcDbEntity
  8
0
100
AcDbPolyline
 90
4
 70
0
 10
2600.685721
 20
476.040648
 10
2620.685721
 20
476.040648
 10
2620.685721
 20
456.040648
 10
2600.685721
 20
456.040648
  0
LINE
  5
24A
330
17
100
AcDbEntity
  8
0
100
AcDbLine
 10
1135.685721
 20
996.040648
 30
0.0
 11
1135.685721
 21
846.040648
 31
0.0
  0
LINE
  5
24B
330
17
100
AcDbEntity
  8
0
100
AcDbLine
 10
1145.685721
 20
1006.040648
 30
0.0
 11
1145.685721
 21
856.040648
 31
0.0
  0
LINE
  5
24C
330
17
100
AcDbEntity
  8
0
100
AcDbLine
 10
2075.685721
 20
1256.040648
 30
0.0
 11
2075.685721
 21
1006.040648
 31
0.0
  0
LINE
  5
24D
330
17
100
AcDbEntity
  8
0
100
AcDbLine
 10
2065.685721
 20
1256.040648
 30
0.0
 11
2065.685721
 21
1241.040648
 31
0.0
  0
LINE
  5
24E
330
17
100
AcDbEntity
  8
0
100
AcDbLine
 10
2065.685721
 20
1221.040648
 30
0.0
 11
2065.685721
 21
1006.040648
 31
0.0
  0
LINE
  5
24F
330
17
100
AcDbEntity
  8
0
100
AcDbLine
 10
2085.685721
 20
1006.040648
 30
0.0
 11
2075.685721
 21
1006.040648
 31
0.0
  0
LINE
  5
250
330
17
100
AcDbEntity
  8
0
100
AcDbLine
 10
2065.685721
 20
1006.040648
 30
0.0
 11
2035.685721
 21
1006.040648
 31
0.0
  0
LINE
  5
251
330
17
100
AcDbEntity
  8
0
100
AcDbLine
 10
2085.685721
 20
996.040648
 30
0.0
 11
2045.685721
 21
996.040648
 31
0.0
  0
LINE
  5
252
330
17
100
AcDbEntity
  8
0
100
AcDbLine
 10
2035.685721
 20
856.040648
 30
0.0
 11
2023.014311
 21
856.040648
 31
0.0
  0
LINE
  5
253
330
17
100
AcDbEntity
  8
0
100
AcDbLine
 10
1933.014311
 20
856.040648
 30
0.0
 11
1895.685721
 21
856.040648
 31
0.0
  0
LINE
  5
254
330
17
100
AcDbEntity
  8
0
100
AcDbLine
 10
2045.685721
 20
846.040648
 30
0.0
 11
2023.014311
 21
846.040648
 31
0.0
  0
LINE
  5
255
330
17
100
AcDbEntity
  8
0
100
AcDbLine
 10
1933.014311
 20
846.040648
 30
0.0
 11
1885.685721
 21
846.040648
 31
0.0
  0
LINE
  5
256
330
17
100
AcDbEntity
  8
0
100
AcDbLine
 10
2045.685721
 20
996.040648
 30
0.0
 11
2045.685721
 21
846.040648
 31
0.0
  0
LINE
  5
257
330
17
100
AcDbEntity
  8
0
100
AcDbLine
 10
2035.685721
 20
1006.040648
 30
0.0
 11
2035.685721
 21
856.040648
 31
0.0
  0
LINE
  5
258
330
17
100
AcDbEntity
  8
0
100
AcDbLine
 10
1105.685721
 20
196.040648
 30
0.0
 11
1105.685721
 21
446.040648
 31
0.0
  0
LINE
  5
259
330
17
100
AcDbEntity
  8
0
100
AcDbLine
 10
1115.685721
 20
196.040648
 30
0.0
 11
1115.685721
 21
211.040648
 31
0.0
  0
LINE
  5
25A
330
17
100
AcDbEntity
  8
0
100
AcDbLine
 10
1115.685721
 20
231.040648
 30
0.0
 11
1115.685721
 21
446.040648
 31
0.0
  0
LINE
  5
25B
330
17
100
AcDbEntity
  8
0
100
AcDbLine
 10
1095.685721
 20
446.040648
 30
0.0
 11
1105.685721
 21
446.040648
 31
0.0
  0
LINE
  5
25C
330
17
100
AcDbEntity
  8
0
100
AcDbLine
 10
1115.685721
 20
446.040648
 30
0.0
 11
1145.685721
 21
446.040648
 31
0.0
  0
LINE
  5
25D
330
17
100
AcDbEntity
  8
0
100
AcDbLine
 10
1095.685721
 20
456.040648
 30
0.0
 11
1135.685721
 21
456.040648
 31
0.0
  0
LINE
  5
25E
330
17
100
AcDbEntity
  8
0
100
AcDbLine
 10
1145.685721
 20
596.040648
 30
0.0
 11
1158.357131
 21
596.040648
 31
0.0
  0
LINE
  5
25F
330
17
100
AcDbEntity
  8
0
100
AcDbLine
 10
1248.357131
 20
596.040648
 30
0.0
 11
1285.685721
 21
596.040648
 31
0.0
  0
LINE
  5
260
330
17
100
AcDbEntity
  8
0
100
AcDbLine
 10
1135.685721
 20
606.040648
 30
0.0
 11
1158.357131
 21
606.040648
 31
0.0
  0
LINE
  5
261
330
17
100
AcDbEntity
  8
0
100
AcDbLine
 10
1248.357131
 20
606.040648
 30
0.0
 11
1295.685721
 21
606.040648
 31
0.0
  0
LINE
  5
262
330
17
100
AcDbEntity
  8
0
100
AcDbLine
 10
1885.685721
 20
566.040648
 30
0.0
 11
1885.685721
 21
606.040648
 31
0.0
  0
LINE
  5
263
330
17
100
AcDbEntity
  8
0
100
AcDbLine
 10
1895.685721
 20
556.040648
 30
0.0
 11
1895.685721
 21
596.040648
 31
0.0
  0
LINE
  5
264
330
17
100
AcDbEntity
  8
0
100
AcDbLine
 10
1135.685721
 20
456.040648
 30
0.0
 11
1135.685721
 21
606.040648
 31
0.0
  0
LINE
  5
265
330
17
100
AcDbEntity
  8
0
100
AcDbLine
 10
1145.685721
 20
446.040648
 30
0.0
 11
1145.685721
 21
596.040648
 31
0.0
  0
LINE
  5
266
330
17
100
AcDbEntity
  8
0
100
AcDbLine
 10
2065.685721
 20
446.040648
 30
0.0
 11
2035.685721
 21
446.040648
 31
0.0
  0
LINE
  5
267
330
17
100
AcDbEntity
  8
0
100
AcDbLine
 10
2085.685721
 20
456.040648
 30
0.0
 11
2045.685721
 21
456.040648
 31
0.0
  0
LINE
  5
268
330
17
100
AcDbEntity
  8
0
100
AcDbLine
 10
2035.685721
 20
596.040648
 30
0.0
 11
2023.014311
 21
596.040648
 31
0.0
  0
LINE
  5
269
330
17
100
AcDbEntity
  8
0
100
AcDbLine
 10
1933.014311
 20
596.040648
 30
0.0
 11
1895.685721
 21
596.040648
 31
0.0
  0
LINE
  5
26A
330
17
100
AcDbEntity
  8
0
100
AcDbLine
 10
2045.685721
 20
606.040648
 30
0.0
 11
2023.014311
 21
606.040648
 31
0.0
  0
LINE
  5
26B
330
17
100
AcDbEntity
  8
0
100
AcDbLine
 10
1933.014311
 20
606.040648
 30
0.0
 11
1885.685721
 21
606.040648
 31
0.0
  0
LINE
  5
26C
330
17
100
AcDbEntity
  8
0
100
AcDbLine
 10
2045.685721
 20
456.040648
 30
0.0
 11
2045.685721
 21
606.040648
 31
0.0
  0
LINE
  5
26D
330
17
100
AcDbEntity
  8
0
100
AcDbLine
 10
2035.685721
 20
446.040648
 30
0.0
 11
2035.685721
 21
596.040648
 31
0.0
  0
LINE
  5
26E
330
17
100
AcDbEntity
  8
0
100
AcDbLine
 10
2065.685721
 20
196.040648
 30
0.0
 11
2065.685721
 21
211.040648
 31
0.0
  0
LINE
  5
26F
330
17
100
AcDbEntity
  8
0
100
AcDbLine
 10
2065.685721
 20
231.040648
 30
0.0
 11
2065.685721
 21
446.040648
 31
0.0
  0
LWPOLYLINE
  5
270
330
17
100
AcDbEntity
  8
0
100
AcDbPolyline
 90
3
 70
0
 10
535.657649
 20
186.040648
 10
505.901307
 20
186.040648
 10
430.685721
 20
194.126095
  0
LWPOLYLINE
  5
271
330
17
100
AcDbEntity
  8
0
100
AcDbPolyline
 90
3
 70
0
 10
430.685721
 20
174.010871
 10
504.829425
 20
166.040648
 10
535.657649
 20
166.040648
  0
LINE
  5
272
330
17
100
AcDbEntity
  8
0
100
AcDbLine
 10
2065.685721
 20
211.040648
 30
0.0
 11
1995.685721
 21
211.040648
 31
0.0
  0
LINE
  5
273
330
17
100
AcDbEntity
  8
0
100
AcDbLine
 10
1835.685721
 20
211.040648
 30
0.0
 11
1740.585847
 21
211.040648
 31
0.0
  0
LINE
  5
274
330
17
100
AcDbEntity
  8
0
100
AcDbLine
 10
2065.685721
 20
231.040648
 30
0.0
 11
1995.685721
 21
231.040648
 31
0.0
  0
LINE
  5
275
330
17
100
AcDbEntity
  8
0
100
AcDbLine
 10
1835.685721
 20
231.040648
 30
0.0
 11
1730.685721
 21
231.040648
 31
0.0
  0
LINE
  5
276
330
17
100
AcDbEntity
  8
0
100
AcDbLine
 10
2065.685721
 20
196.040648
 30
0.0
 11
2065.685721
 21
211.040648
 31
0.0
  0
LINE
  5
277
330
17
100
AcDbEntity
  8
0
100
AcDbLine
 10
2065.685721
 20
231.040648
 30
0.0
 11
2065.685721
 21
446.040648
 31
0.0
  0
LINE
  5
278
330
17
100
AcDbEntity
  8
0
100
AcDbLine
 10
1115.685721
 20
1241.040648
 30
0.0
 11
1185.685721
 21
1241.040648
 31
0.0
  0
LINE
  5
279
330
17
100
AcDbEntity
  8
0
100
AcDbLine
 10
1345.685721
 20
1241.040648
 30
0.0
 11
1445.685721
 21
1241.040648
 31
0.0
  0
LINE
  5
27A
330
17
100
AcDbEntity
  8
0
100
AcDbLine
 10
1115.685721
 20
1221.040648
 30
0.0
 11
1185.685721
 21
1221.040648
 31
0.0
  0
LINE
  5
27B
330
17
100
AcDbEntity
  8
0
100
AcDbLine
 10
1345.685721
 20
1221.040648
 30
0.0
 11
1445.685721
 21
1221.040648
 31
0.0
  0
LINE
  5
27C
330
17
100
AcDbEntity
  8
0
100
AcDbLine
 10
1450.15814
 20
1221.040648
 30
0.0
 11
1450.685721
 21
1221.040648
 31
0.0
  0
LWPOLYLINE
  5
27D
330
17
100
AcDbEntity
  8
0
100
AcDbPolyline
 90
4
 70
0
 10
1105.685721
 20
1286.040648
 10
1105.685721
 20
1426.040648
 10
1470.685721
 20
1426.040648
 10
1470.685721
 20
1286.040648
  0
LWPOLYLINE
  5
27E
330
17
100
AcDbEntity
  8
0
100
AcDbPolyline
 90
4
 70
0
 10
1115.685721
 20
1286.040648
 10
1115.685721
 20
1416.040648
 10
1460.685721
 20
1416.040648
 10
1460.685721
 20
1286.040648
  0
LWPOLYLINE
  5
27F
330
17
100
AcDbEntity
  8
0
100
AcDbPolyline
 90
4
 70
0
 10
1710.685721
 20
1286.040648
 10
1710.685721
 20
1426.040648
 10
2075.685721
 20
1426.040648
 10
2075.685721
 20
1286.040648
  0
LWPOLYLINE
  5
280
330
17
100
AcDbEntity
  8
0
100
AcDbPolyline
 90
4
 70
0
 10
1720.685721
 20
1286.040648
 10
1720.685721
 20
1416.040648
 10
2065.685721
 20
1416.040648
 10
2065.685721
 20
1286.040648
  0
LINE
  5
281
330
17
100
AcDbEntity
  8
0
100
AcDbLine
 10
2065.685721
 20
1241.040648
 30
0.0
 11
1995.685721
 21
1241.040648
 31
0.0
  0
LINE
  5
282
330
17
100
AcDbEntity
  8
0
100
AcDbLine
 10
1835.685721
 20
1241.040648
 30
0.0
 11
1735.685721
 21
1241.040648
 31
0.0
  0
LINE
  5
283
330
17
100
AcDbEntity
  8
0
100
AcDbLine
 10
2065.685721
 20
1221.040648
 30
0.0
 11
1995.685721
 21
1221.040648
 31
0.0
  0
LINE
  5
284
330
17
100
AcDbEntity
  8
0
100
AcDbLine
 10
1835.685721
 20
1221.040648
 30
0.0
 11
1735.685721
 21
1221.040648
 31
0.0
  0
LWPOLYLINE
  5
285
330
17
100
AcDbEntity
  8
0
100
AcDbPolyline
 90
4
 70
0
 10
3155.685721
 20
1156.040648
 10
3155.685721
 20
1386.040648
 10
2795.685721
 20
1386.040648
 10
2795.685721
 20
1286.040648
  0
LWPOLYLINE
  5
286
330
17
100
AcDbEntity
  8
0
100
AcDbPolyline
 90
4
 70
0
 10
825.685721
 20
166.040648
 10
825.685721
 20
26.040648
 10
420.685721
 20
26.040648
 10
420.61761
 20
175.093162
  0
LWPOLYLINE
  5
287
330
17
100
AcDbEntity
  8
0
100
AcDbPolyline
 90
4
 70
0
 10
1710.685721
 20
166.040648
 10
1710.685721
 20
26.040648
 10
2075.685721
 20
26.040648
 10
2075.685721
 20
166.040648
  0
LWPOLYLINE
  5
288
330
17
100
AcDbEntity
  8
0
100
AcDbPolyline
 90
4
 70
0
 10
3155.685721
 20
296.040648
 10
3155.685721
 20
136.040648
 10
2795.685721
 20
136.040648
 10
2795.685721
 20
166.040648
  0
LINE
  5
289
330
17
100
AcDbEntity
  8
0
100
AcDbLine
 10
320.685721
 20
1156.040648
 30
0.0
 11
320.685721
 21
1136.040648
 31
0.0
  0
LINE
  5
28A
330
17
100
AcDbEntity
  8
0
100
AcDbLine
 10
140.685721
 20
1156.040648
 30
0.0
 11
140.685721
 21
1136.040648
 31
0.0
  0
ENDSEC
  0
SECTION
  2
OBJECTS
  0
DICTIONARY
  5
A
330
0
100
AcDbDictionary
280
0
281
1
  3
ACAD_COLOR
350
B
  3
ACAD_GROUP
350
C
  3
ACAD_LAYOUT
350
D
  3
ACAD_MATERIAL
350
E
  3
ACAD_MLEADERSTYLE
350
F
  3
ACAD_MLINESTYLE
350
10
  3
ACAD_PLOTSETTINGS
350
11
  3
ACAD_PLOTSTYLENAME
350
12
  3
ACAD_SCALELIST
350
14
  3
ACAD_TABLESTYLE
350
15
  3
ACAD_VISUALSTYLE
350
16
  3
EZDXF_META
350
2D
  0
DICTIONARY
  5
B
330
A
100
AcDbDictionary
280
0
281
1
  0
DICTIONARY
  5
C
330
A
100
AcDbDictionary
280
0
281
1
  0
DICTIONARY
  5
D
330
A
100
AcDbDictionary
280
0
281
1
  3
Model
350
1A
  3
Layout1
350
1E
  0
DICTIONARY
  5
E
330
A
100
AcDbDictionary
280
0
281
1
  3
ByBlock
350
1F
  3
ByLayer
350
20
  3
Global
350
21
  0
DICTIONARY
  5
F
330
A
100
AcDbDictionary
280
0
281
1
  3
Standard
350
2C
  0
DICTIONARY
  5
10
330
A
100
AcDbDictionary
280
0
281
1
  3
Standard
350
22
  0
DICTIONARY
  5
11
330
A
100
AcDbDictionary
280
0
281
1
  0
ACDBDICTIONARYWDFLT
  5
12
330
A
100
AcDbDictionary
280
0
281
1
  3
Normal
350
13
100
AcDbDictionaryWithDefault
340
13
  0
ACDBPLACEHOLDER
  5
13
330
12
  0
DICTIONARY
  5
14
330
A
100
AcDbDictionary
280
0
281
1
  0
DICTIONARY
  5
15
330
A
100
AcDbDictionary
280
0
281
1
  0
DICTIONARY
  5
16
330
A
100
AcDbDictionary
280
0
281
1
  0
LAYOUT
  5
1A
330
D
100
AcDbPlotSettings
  1

  4
A3
  6

 40
7.5
 41
20.0
 42
7.5
 43
20.0
 44
420.0
 45
297.0
 46
0.0
 47
0.0
 48
0.0
 49
0.0
140
0.0
141
0.0
142
1.0
143
1.0
 70
1024
 72
1
 73
0
 74
5
  7

 75
16
 76
0
 77
2
 78
300
147
1.0
148
0.0
149
0.0
100
AcDbLayout
  1
Model
 70
1
 71
0
 10
0.0
 20
0.0
 11
420.0
 21
297.0
 12
0.0
 22
0.0
 32
0.0
 14
1e+20
 24
1e+20
 34
1e+20
 15
-1e+20
 25
-1e+20
 35
-1e+20
146
0.0
 13
0.0
 23
0.0
 33
0.0
 16
1.0
 26
0.0
 36
0.0
 17
0.0
 27
1.0
 37
0.0
 76
1
330
17
  0
LAYOUT
  5
1E
330
D
100
AcDbPlotSettings
  1

  4
A3
  6

 40
7.5
 41
20.0
 42
7.5
 43
20.0
 44
420.0
 45
297.0
 46
0.0
 47
0.0
 48
0.0
 49
0.0
140
0.0
141
0.0
142
1.0
143
1.0
 70
0
 72
1
 73
0
 74
5
  7

 75
16
 76
0
 77
2
 78
300
147
1.0
148
0.0
149
0.0
100
AcDbLayout
  1
Layout1
 70
1
 71
1
 10
0.0
 20
0.0
 11
420.0
 21
297.0
 12
0.0
 22
0.0
 32
0.0
 14
1e+20
 24
1e+20
 34
1e+20
 15
-1e+20
 25
-1e+20
 35
-1e+20
146
0.0
 13
0.0
 23
0.0
 33
0.0
 16
1.0
 26
0.0
 36
0.0
 17
0.0
 27
1.0
 37
0.0
 76
1
330
1B
  0
MATERIAL
  5
1F
102
{ACAD_REACTORS
330
E
102
}
330
E
100
AcDbMaterial
  1
ByBlock
  2

 70
0
 40
1.0
 71
1
 41
1.0
 91
-1023410177
 42
1.0
 72
1
  3

 73
1
 74
1
 75
1
 44
0.5
 73
0
 45
1.0
 46
1.0
 77
1
  4

 78
1
 79
1
170
1
 48
1.0
171
1
  6

172
1
173
1
174
1
140
1.0
141
1.0
175
1
  7

176
1
177
1
178
1
143
1.0
179
1
  8

270
1
271
1
272
1
145
1.0
146
1.0
273
1
  9

274
1
275
1
276
1
 42
1.0
 72
1
  3

 73
1
 74
1
 75
1
 94
63
  0
MATERIAL
  5
20
102
{ACAD_REACTORS
330
E
102
}
330
E
100
AcDbMaterial
  1
ByLayer
  2

 70
0
 40
1.0
 71
1
 41
1.0
 91
-1023410177
 42
1.0
 72
1
  3

 73
1
 74
1
 75
1
 44
0.5
 73
0
 45
1.0
 46
1.0
 77
1
  4

 78
1
 79
1
170
1
 48
1.0
171
1
  6

172
1
173
1
174
1
140
1.0
141
1.0
175
1
  7

176
1
177
1
178
1
143
1.0
179
1
  8

270
1
271
1
272
1
145
1.0
146
1.0
273
1
  9

274
1
275
1
276
1
 42
1.0
 72
1
  3

 73
1
 74
1
 75
1
 94
63
  0
MATERIAL
  5
21
102
{ACAD_REACTORS
330
E
102
}
330
E
100
AcDbMaterial
  1
Global
  2

 70
0
 40
1.0
 71
1
 41
1.0
 91
-1023410177
 42
1.0
 72
1
  3

 73
1
 74
1
 75
1
 44
0.5
 73
0
 45
1.0
 46
1.0
 77
1
  4

 78
1
 79
1
170
1
 48
1.0
171
1
  6

172
1
173
1
174
1
140
1.0
141
1.0
175
1
  7

176
1
177
1
178
1
143
1.0
179
1
  8

270
1
271
1
272
1
145
1.0
146
1.0
273
1
  9

274
1
275
1
276
1
 42
1.0
 72
1
  3

 73
1
 74
1
 75
1
 94
63
  0
MLINESTYLE
  5
22
102
{ACAD_REACTORS
330
10
102
}
330
10
100
AcDbMlineStyle
  2
Standard
 70
0
  3

 62
256
 51
90.0
 52
90.0
 71
2
 49
0.5
 62
256
  6
BYLAYER
 49
-0.5
 62
256
  6
BYLAYER
  0
MLEADERSTYLE
  5
2C
102
{ACAD_REACTORS
330
F
102
}
330
F
100
AcDbMLeaderStyle
179
2
170
2
171
1
172
0
 90
2
 40
0.0
 41
0.0
173
1
 91
-1056964608
 92
-2
290
1
 42
2.0
291
1
 43
8.0
  3
Standard
 44
4.0
300

342
29
174
1
175
1
176
0
178
1
 93
-1056964608
 45
4.0
292
0
297
0
 46
4.0
 94
-1056964608
 47
1.0
 49
1.0
140
1.0
294
1
141
0.0
177
0
142
1.0
295
0
296
0
143
3.75
271
0
272
9
273
9
  0
DICTIONARY
  5
2D
330
A
100
AcDbDictionary
280
1
281
1
  3
CREATED_BY_EZDXF
350
2E
  3
WRITTEN_BY_EZDXF
350
28D
  0
DICTIONARYVAR
  5
2E
330
2D
100
DictionaryVariables
280
0
  1
1.4.0 @ 2025-04-06T14:43:57.332560+00:00
  0
DICTIONARYVAR
  5
28D
330
2D
100
DictionaryVariables
280
0
  1
1.4.0 @ 2025-04-06T14:43:57.348311+00:00
  0
ENDSEC
  0
EOF
