0
SECTION
2
HEADER
9
$INSUNITS
70
4
9
$ACADVER
1
AC1014
9
$HANDSEED
5
FFFF
0
ENDSEC
0
SECTION
2
TABLES
0
TABLE
2
VPORT
5
8
100
AcDbSymbolTable
0
ENDTAB
0
TABLE
2
LTYPE
5
5
100
AcDbSymbolTable
0
LTYPE
5
14
100
AcDbSymbolTableRecord
100
AcDbLinetypeTableRecord
2
BYBLOCK
70
0
0
LTYPE
5
15
100
AcDbSymbolTableRecord
100
AcDbLinetypeTableRecord
2
BYLAYER
70
0
0
LTYPE
5
16
100
AcDbSymbolTableRecord
100
AcDbLinetypeTableRecord
2
DASHED
70
0
3
Dashed __ __ __ __ __ __ __ __ __ __ __ __ __ _
72
65
73
2
40
0.75
49
0.5
74
0
49
-0.25
74
0
0
ENDTAB
0
TABLE
2
LAYER
5
2
100
AcDbSymbolTable
70
2
0
LAYER
5
50
100
AcDbSymbolTableRecord
100
AcDbLayerTableRecord
2
0
70
0
62
7
6
CONTINUOUS
0
ENDTAB
0
TABLE
2
STYLE
5
3
100
AcDbSymbolTable
70
1
0
STYLE
5
11
100
AcDbSymbolTableRecord
100
AcDbTextStyleTableRecord
2
STANDARD
70
0
0
ENDTAB
0
TABLE
2
VIEW
5
6
100
AcDbSymbolTable
70
0
0
ENDTAB
0
TABLE
2
UCS
5
7
100
AcDbSymbolTable
70
0
0
ENDTAB
0
TABLE
2
APPID
5
9
100
AcDbSymbolTable
70
2
0
APPID
5
12
100
AcDbSymbolTableRecord
100
AcDbRegAppTableRecord
2
ACAD
70
0
0
ENDTAB
0
TABLE
2
DIMSTYLE
5
A
100
AcDbSymbolTable
70
1
0
ENDTAB
0
TABLE
2
BLOCK_RECORD
5
1
100
AcDbSymbolTable
70
1
0
BLOCK_RECORD
5
1F
100
AcDbSymbolTableRecord
100
AcDbBlockTableRecord
2
*MODEL_SPACE
0
BLOCK_RECORD
5
1B
100
AcDbSymbolTableRecord
100
AcDbBlockTableRecord
2
*PAPER_SPACE
0
ENDTAB
0
ENDSEC
0
SECTION
2
BLOCKS
0
BLOCK
5
20
100
AcDbEntity
100
AcDbBlockBegin
2
*MODEL_SPACE
0
ENDBLK
5
21
100
AcDbEntity
100
AcDbBlockEnd
0
BLOCK
5
1C
100
AcDbEntity
100
AcDbBlockBegin
2
*PAPER_SPACE
0
ENDBLK
5
1D
100
AcDbEntity
100
AcDbBlockEnd
0
ENDSEC
0
SECTION
2
ENTITIES
0
LINE
5
100
100
AcDbEntity
8
0
100
AcDbLine
10
34.767169757931796
20
61.778868493854574
30
0
11
49.773492952033607
21
84.701405807168939
31
0
0
LWPOLYLINE
5
101
100
AcDbEntity
8
0
100
AcDbPolyline
90
34
70
1
43
0.0
10
132.98567616074769
20
61.778868493854596
10
135.50022938747378
20
56.576956018855711
10
136.37498441815549
20
51.286735030050465
10
135.64452533313892
20
46.018755041601374
10
133.32601769255825
20
40.880871266152866
10
129.42170874862509
20
35.986134031917281
10
123.92207947732672
20
31.461369651873351
10
116.812725907962
20
27.458326155324961
10
108.09402403867551
20
24.16899482496683
10
97.838464818283825
20
21.843000048594128
10
86.338023288698622
20
20.784798547265375
10
74.343312305624409
20
21.255361748816828
10
63.011572987768325
20
23.248037793210639
10
53.234493094810993
20
26.449873449670687
10
45.313018795697033
20
30.494464417142151
10
39.242061640147966
20
35.103823476507785
10
34.943475302883172
20
40.080295298832553
10
32.342454970077753
20
45.274428291899518
10
31.383552207042737
20
50.562844385190154
10
32.031208919857157
20
55.834624303654827
10
34.267416674640828
20
60.981969400901058
10
34.767169757931796
20
61.778868493854574
10
38.840794256691623
20
66.640563725142712
10
44.511230258473518
20
71.117538091969749
10
51.792614769703818
20
75.054566634926374
10
60.680664437985214
20
78.254303027975737
10
71.088695991771516
20
80.460332880437221
10
82.68743433706274
20
81.365465703883956
10
94.668764868016837
20
80.72588266680367
10
105.86630681923452
20
78.586249622978414
10
115.45172704672019
20
75.278393566733413
10
120.9995289716335
20
72.495386118530988
10
127.43644549146282
20
67.981515909657531
10
132.0844568971651
20
63.065620754914647
0
LINE
5
102
100
AcDbEntity
8
0
100
AcDbLine
10
132.98567616074769
20
61.778868493854596
30
0
11
113.87642295933979
21
90.968734917031
31
0
0
LINE
5
103
100
AcDbEntity
8
0
100
AcDbLine
10
113.87642295933979
20
90.968734917031
30
0
11
111.93885336014431
21
93.9284213678838
31
0
0
LWPOLYLINE
5
104
100
AcDbEntity
8
0
100
AcDbPolyline
90
78
70
1
43
0.0
10
98.018558583070714
20
59.227316678455438
10
100.83224791788959
20
57.186075225456193
10
103.19867341467692
20
54.042878637948036
10
103.87642295933979
20
51.062350869178189
10
103.87642295933979
20
63.309799583094062
10
103.08174209075031
20
60.087185889176396
10
100.72003975220258
20
57.083710030916919
10
97.728935455863208
20
54.980976186125723
10
92.584725299717491
20
52.914841344464278
10
86.012424703396917
20
51.828837129980876
10
82.623964708476421
20
51.785457977462912
10
82.623964708476407
20
88.527804119210586
10
84.536486087441602
20
88.511430601607813
10
91.350854991217361
20
89.341825689149644
10
96.803864330761954
20
91.241522220827918
10
100.72003975220258
20
93.826056172664579
10
103.08174209075031
20
96.829532030924085
10
103.87642295933979
20
100.05214572484181
10
103.83716814407281
20
100.77525283312652
10
112.85419774801181
20
95.569268364001502
10
112.85419774801181
20
83.321819650085615
10
113.07997219992409
20
83.840157871977226
10
113.87642295933979
20
87.80469701092585
10
113.87642295933979
20
126.5453642206709
10
113.26137269769802
20
117.5641711236598
10
111.9993184998485
20
110.35152329428841
10
103.75495880708142
20
115.11140658220361
10
102.3464733949296
20
111.95273439337282
10
99.37844202321493
20
109.08624737134491
10
94.858347454211781
20
106.7315620827322
10
88.833474314278433
20
105.1953643637866
10
88.674134243094727
20
105.17223098052212
10
86.077289277417776
20
104.905199320607
10
94.321648970184839
20
100.14531603269182
10
82.876508143397501
20
110.04544761147741
10
70.228735704180792
20
119.66868097793041
10
63.668772697675351
20
123.95521482497202
10
59.129013172348493
20
126.40905886205442
10
56.090863451336254
20
127.5179332337355
10
54.366788265364185
20
127.47756279198852
10
53.876422959339791
20
126.54536422067081
10
54.491473220981625
20
124.5426837516406
10
55.753527418831048
20
122.4126313925041
10
58.972928553883932
20
126.03981977106243
10
59.310757271858662
20
126.3240434355216
10
64.237322262252135
20
129.47540546385071
10
70.73719984706635
20
131.95299913163021
10
73.431196948494744
20
132.6188386541007
10
81.675556641261821
20
127.85895536618551
10
75.431785285722967
20
126.8492975181662
10
70.21994011715222
20
124.8181205782514
10
66.55157066552718
20
122.1512336363498
10
65.406372523749951
20
120.8114202934197
10
63.997887111598118
20
117.65274810458902
10
63.876422959339791
20
118.29750323224761
10
63.876422959339791
20
100.05214572484181
10
64.671103827929258
20
103.2747594187594
10
67.032806166476931
20
106.27823527701892
10
70.948981587917615
20
108.8627692288556
10
76.401990927462222
20
110.76246576053379
10
81.095023134112154
20
111.48694371186693
10
85.128881210203119
20
111.57648733047293
10
85.128881210203161
20
108.18537415858862
10
85.128881210203161
20
74.834141188725198
10
83.216359831237966
20
74.850514706327999
10
76.401990927462208
20
74.020119618786168
10
70.948981587917615
20
72.120423087107895
10
67.032806166476917
20
69.535889135271219
10
64.671103827929244
20
66.532413277011727
10
63.876422959339791
20
63.30979958309409
10
63.876422959339791
20
51.062350869178189
10
64.671103827929244
20
54.284964563095848
10
67.032806166476917
20
57.288440421355332
10
70.948981587917615
20
59.872974373191994
10
76.401990927462208
20
61.772670904870282
10
83.216359831237966
20
62.603065992412105
10
90.527878717492243
20
61.952072878139049
10
95.720255657615184
20
60.366895045999584
0
LINE
5
105
100
AcDbEntity
8
0
100
AcDbLine
10
103.87642295933979
20
51.062350869178189
30
0
11
103.08174209075031
21
47.83973717526051
31
0
0
LINE
5
106
100
AcDbEntity
8
0
100
AcDbLine
10
103.08174209075031
20
47.83973717526051
30
0
11
100.72003975220258
21
44.836261317001025
31
0
0
LINE
5
107
100
AcDbEntity
8
0
100
AcDbLine
10
100.72003975220258
20
44.836261317001025
30
0
11
96.803864330761954
21
42.251727365164371
31
0
0
LINE
5
108
100
AcDbEntity
8
0
100
AcDbLine
10
96.803864330761954
20
42.251727365164371
30
0
11
91.350854991217304
21
40.352030833486083
31
0
0
LINE
5
109
100
AcDbEntity
8
0
100
AcDbLine
10
91.350854991217304
20
40.352030833486083
30
0
11
84.536486087441602
21
39.521635745944252
31
0
0
LINE
5
110
100
AcDbEntity
8
0
100
AcDbLine
10
84.536486087441602
20
39.521635745944252
30
0
11
77.224967201187326
21
40.172628860217294
31
0
0
LINE
5
111
100
AcDbEntity
8
0
100
AcDbLine
10
77.224967201187326
20
40.172628860217294
30
0
11
71.097433215070268
21
42.179832061320148
31
0
0
LINE
5
112
100
AcDbEntity
8
0
100
AcDbLine
10
71.097433215070268
20
42.179832061320148
30
0
11
66.89980033072294
21
44.95786388211873
31
0
0
LINE
5
113
100
AcDbEntity
8
0
100
AcDbLine
10
66.89980033072294
20
44.95786388211873
30
0
11
64.544623361836926
21
48.102535316254389
31
0
0
LINE
5
114
100
AcDbEntity
8
0
100
AcDbLine
10
64.544623361836926
20
48.102535316254389
30
0
11
63.876422959339791
21
51.062350869178189
31
0
0
LINE
5
115
100
AcDbEntity
8
0
100
AcDbLine
10
91.640994312415373
20
71.074370936169672
30
0
11
82.894693957471986
21
70.493465510664791
31
0
0
LINE
5
116
100
AcDbEntity
8
0
100
AcDbLine
10
82.894693957471986
20
70.493465510664791
30
0
11
73.970806800647594
21
71.45560153628611
31
0
0
LINE
5
117
100
AcDbEntity
8
0
100
AcDbLine
10
73.970806800647594
20
71.45560153628611
30
0
11
66.303754695593398
21
73.766637671018003
31
0
0
LINE
5
118
100
AcDbEntity
8
0
100
AcDbLine
10
66.303754695593398
20
73.766637671018003
30
0
11
60.51658560998257
21
76.937038584635232
31
0
0
LINE
5
119
100
AcDbEntity
8
0
100
AcDbLine
10
60.51658560998257
20
76.937038584635232
30
0
11
56.595761231824724
21
80.599016480749299
31
0
0
LINE
5
120
100
AcDbEntity
8
0
100
AcDbLine
10
56.595761231824724
20
80.599016480749299
30
0
11
54.421614236104858
21
84.517639406844651
31
0
0
LINE
5
121
100
AcDbEntity
8
0
100
AcDbLine
10
54.421614236104858
20
84.517639406844651
30
0
11
53.876422959339791
21
87.80469701092585
31
0
0
LINE
5
122
100
AcDbEntity
8
0
100
AcDbLine
10
53.876422959339791
20
87.80469701092585
30
0
11
54.672873718755461
21
91.769236149874473
31
0
0
LINE
5
123
100
AcDbEntity
8
0
100
AcDbLine
10
54.672873718755461
20
91.769236149874473
30
0
11
54.898648170667677
21
92.287574371765999
31
0
0
LINE
5
124
100
AcDbEntity
8
0
100
AcDbLine
10
53.876422959339791
20
126.54536422067081
30
0
11
53.876422959339791
21
87.80469701092585
31
0
0
LINE
5
125
100
AcDbEntity
8
0
100
AcDbLine
10
105.0896263949362
20
100.05214572484171
30
0
11
109.76335056128342
21
96.55811499728469
31
0
0
LINE
5
126
100
AcDbEntity
8
0
100
AcDbLine
10
109.76335056128342
20
96.55811499728469
30
0
11
111.93885336014431
21
93.9284213678838
31
0
0
LINE
5
127
100
AcDbEntity
8
0
100
AcDbLine
10
111.93885336014431
20
93.9284213678838
30
0
11
113.64104816372441
21
89.97011355611285
31
0
0
LINE
5
128
100
AcDbEntity
8
0
100
AcDbLine
10
113.64104816372441
20
89.97011355611285
30
0
11
113.87642295933979
21
87.80469701092585
31
0
0
LINE
5
129
100
AcDbEntity
8
0
100
AcDbLine
10
103.87642295933979
20
118.29750323224761
30
0
11
103.87642295933979
21
100.05214572484181
31
0
0
ELLIPSE
5
130
100
AcDbEntity
8
0
100
AcDbEllipse
10
83.876422959339777
20
87.80469701092585
30
0
11
-30
21
3.6739403974420592e-15
31
0.0
40
0.57735026918962595
41
3.9269908169872396
42
4.9741883681838326
0
LINE
5
131
100
AcDbEntity
8
0
100
AcDbLine
10
86.077289277417776
20
104.905199320607
30
0
11
73.624146144269858
21
114.50678008094171
31
0
0
LINE
5
132
100
AcDbEntity
8
0
100
AcDbLine
10
73.624146144269858
20
114.50678008094171
30
0
11
68.833873237078421
21
117.4699586681338
31
0
0
LINE
5
133
100
AcDbEntity
8
0
100
AcDbLine
10
68.833873237078421
20
117.4699586681338
30
0
11
65.850992815679504
21
118.81296038787281
31
0
0
LINE
5
134
100
AcDbEntity
8
0
100
AcDbLine
10
65.850992815679504
20
118.81296038787281
30
0
11
64.251695979806627
21
118.94213929369231
31
0
0
LINE
5
135
100
AcDbEntity
8
0
100
AcDbLine
10
64.251695979806627
20
118.94213929369231
30
0
11
63.876422959339791
21
118.29750323224761
31
0
0
LINE
5
136
100
AcDbEntity
8
0
100
AcDbLine
10
63.997887111598118
20
117.65274810458902
30
0
11
55.753527418831048
21
122.4126313925041
31
0
0
ELLIPSE
5
137
100
AcDbEntity
8
0
100
AcDbEllipse
10
83.876422959339777
20
116.3820773433963
30
0
11
30
21
0
31
0.0
40
0.57735026918962584
41
5.0680117124776105
42
5.9275625750866654
0
ELLIPSE
5
138
100
AcDbEntity
8
0
100
AcDbEllipse
10
83.876422959339777
20
101.80178125540122
30
0
11
-19.870357229656431
21
-47.903159263566948
31
0.0
40
0.4691958346925712
41
3.0801392687717937
42
4.2211601642621632
0
ELLIPSE
5
139
100
AcDbEntity
8
0
100
AcDbEllipse
10
83.876422959339777
20
101.80178125540122
30
0
11
-13.246904819770961
21
-31.935439509044642
31
0.0
40
0.46919583469257103
41
3.080139268771795
42
3.9758040626296594
0
LINE
5
140
100
AcDbEntity
8
0
100
AcDbLine
10
105.0896263949362
20
149.04194058050535
30
0
11
108.47235936861999
21
146.17227974176618
31
0
0
LINE
5
141
100
AcDbEntity
8
0
100
AcDbLine
10
108.47235936861999
20
146.17227974176618
30
0
11
111.11993771243071
21
141.88476837823112
31
0
0
LINE
5
142
100
AcDbEntity
8
0
100
AcDbLine
10
111.11993771243071
20
141.88476837823112
30
0
11
112.94130842619342
21
136.19456553980152
31
0
0
LINE
5
143
100
AcDbEntity
8
0
100
AcDbLine
10
112.94130842619342
20
136.19456553980152
30
0
11
113.8190890606281
21
129.09742157905549
31
0
0
LINE
5
144
100
AcDbEntity
8
0
100
AcDbLine
10
113.8190890606281
20
129.09742157905549
30
0
11
113.87642295933979
21
126.5453642206709
31
0
0
LINE
5
145
100
AcDbEntity
8
0
100
AcDbLine
10
98.018558583070728
20
133.29522080547062
30
0
11
100.7131783660289
21
130.82402237181998
31
0
0
LINE
5
146
100
AcDbEntity
8
0
100
AcDbLine
10
100.7131783660289
20
130.82402237181998
30
0
11
102.65188391156158
21
126.9492540298434
31
0
0
LINE
5
147
100
AcDbEntity
8
0
100
AcDbLine
10
102.65188391156158
20
126.9492540298434
30
0
11
103.71799440897399
21
121.6895299054277
31
0
0
LINE
5
148
100
AcDbEntity
8
0
100
AcDbLine
10
103.71799440897399
20
121.6895299054277
30
0
11
103.87642295933979
21
118.29750323224761
31
0
0
LINE
5
149
100
AcDbEntity
8
0
100
AcDbLine
10
103.87642295933979
20
118.29750323224761
30
0
11
103.75495880708142
21
115.11140658220361
31
0
0
LWPOLYLINE
5
150
100
AcDbEntity
8
0
100
AcDbPolyline
90
13
70
1
43
0.0
10
63.915677774606721
20
62.58669247480934
10
43.269821241541564
20
74.50658330182489
10
45.419706848019466
20
77.926450780759055
10
47.586145195309712
20
81.326513175391142
10
49.773502605423523
20
84.701420552953707
10
51.128388999799185
20
86.756436294298837
10
52.495229549064234
20
88.796823192895801
10
53.876422959339791
20
90.819657537196449
10
54.216062927655528
20
91.310328277530019
10
54.556785807969874
20
91.799657265842228
10
54.898648170667677
20
92.287574371765999
10
54.898648170667784
20
104.53502308568198
10
63.915677774606522
20
99.329038616557142
0
ELLIPSE
5
151
100
AcDbEntity
8
0
100
AcDbEllipse
10
83.876422959339777
20
63.309799583094069
30
0
11
45
21
0
31
0.0
40
0.57735026918962573
41
5.1579502343280161
42
5.8376240532362589
0
LINE
5
152
100
AcDbEntity
8
0
100
AcDbLine
10
91.640994312415415
20
83.321819650085587
30
0
11
91.640994312415373
21
71.074370936169672
31
0
0
SPLINE
5
153
100
AcDbEntity
8
0
100
AcDbSpline
70
0
71
3
72
15
73
11
74
0
42
0.000000001
43
0.0000000001
44
0.0000000001
40
0
40
0
40
0
40
0
40
1.3462758166311122
40
2.3498829299765518
40
3.6182289803947318
40
4.9632073929107863
40
6.3966663207462489
40
7.8905101629435181
40
9.4103607423728501
40
11
40
11
40
11
40
11
10
112.85419774801181
20
83.321819650085615
30
0
10
113.34768995492971
20
82.049901206800143
30
0
10
114.2025912846515
20
79.829294204532445
30
0
10
115.50481732970422
20
76.409056034747934
30
0
10
116.79484988109891
20
72.989205416359013
30
0
10
118.22555518236081
20
69.162112770436408
30
0
10
119.72406695481432
20
65.121144941716949
30
0
10
121.27296806254242
20
60.91422789645484
30
0
10
122.86645705129021
20
56.559106027422771
30
0
10
123.9370201571825
20
53.617073755927436
30
0
10
124.48302467715492
20
52.113015864353507
30
0
0
LINE
5
154
100
AcDbEntity
8
0
100
AcDbLine
10
91.640994312415415
20
83.321819650085587
30
0
11
82.623964708476407
21
88.527804119210586
31
0
0
SPLINE
5
155
100
AcDbEntity
8
0
100
AcDbSpline
70
0
71
3
72
15
73
11
74
0
42
0.000000001
43
0.0000000001
44
0.0000000001
40
0
40
0
40
0
40
0
40
1.346275816630953
40
2.3498829299772348
40
3.6182289803965717
40
4.963207392910161
40
6.3966663207413825
40
7.8905101629540715
40
9.4103607424044426
40
11
40
11
40
11
40
11
10
91.640994312415373
20
71.074370936169672
30
0
10
92.134486519333365
20
69.802452492884072
30
0
10
92.989387849055575
20
67.581845490615706
30
0
10
94.291613894108622
20
64.16160732083074
30
0
10
95.581646445501377
20
60.741756702446764
30
0
10
97.012351746761595
20
56.914664056527897
30
0
10
98.510863519224728
20
52.87369622778197
30
0
10
100.05976462696061
20
48.666779182496313
30
0
10
101.65325361567851
20
44.311657313541161
30
0
10
102.72381672152243
20
41.369625042186364
30
0
10
103.26982124154159
20
39.865567150447347
30
0
0
LINE
5
156
100
AcDbEntity
8
0
100
AcDbLine
10
76.111851606264196
20
116.78247179959791
30
0
11
76.111851606264352
21
104.53502308568204
31
0
0
ELLIPSE
5
157
100
AcDbEntity
8
0
100
AcDbEllipse
10
83.876422959339777
20
63.309799583094069
30
0
11
-45
21
5.5109105961630896e-15
31
0.0
40
0.57735026918962573
41
5.1579502343280152
42
5.8376240532362598
0
SPLINE
5
158
100
AcDbEntity
8
0
100
AcDbSpline
70
0
71
3
72
15
73
11
74
0
42
0.000000001
43
0.0000000001
44
0.0000000001
40
0
40
0
40
0
40
0
40
1.346275816631116
40
2.3498829299765549
40
3.6182289803947389
40
4.9632073929107898
40
6.3966663207462524
40
7.8905101629435226
40
9.4103607423728395
40
11
40
11
40
11
40
11
10
76.11185160626431
20
104.53502308568198
30
0
10
75.618359399346247
20
103.8329403594106
30
0
10
74.763458069624264
20
102.5994883828341
30
0
10
73.461232024571473
20
100.68293132836381
30
0
10
72.171199473176969
20
98.752681991597512
30
0
10
70.740494171915643
20
96.577625527304306
30
0
10
69.241982399462714
20
94.266990049005159
30
0
10
67.693081291735709
20
91.848589946733313
30
0
10
66.099592302988981
20
89.333470670910401
30
0
10
65.029029197097543
20
87.627618194158273
30
0
10
64.483024677121108
20
86.754032015750525
30
0
0
LINE
5
159
100
AcDbEntity
8
0
100
AcDbLine
10
85.128881210203161
20
74.834141188725198
30
0
11
64.48302467713799
21
86.75403201574079
31
0
0
LINE
5
160
100
AcDbEntity
8
0
100
AcDbLine
10
103.83716814407281
20
64.032906691378798
30
0
11
103.87642295933979
21
63.309799583094062
31
0
0
LINE
5
161
100
AcDbEntity
8
0
100
AcDbLine
10
63.915677774606522
20
99.329038616557142
30
0
11
63.876422959339791
21
100.05214572484181
31
0
0
ELLIPSE
5
162
100
AcDbEntity
8
0
100
AcDbEllipse
10
83.876422959339777
20
100.05214572484181
30
0
11
30.000000000000007
21
0
31
0.0
40
0.57735026918962562
41
4.9741883681838388
42
6.0213859193804335
0
LINE
5
163
100
AcDbEntity
8
0
100
AcDbLine
10
85.128881210203119
20
111.57648733047293
30
0
11
76.111851606264196
21
116.78247179959791
31
0
0
LINE
5
164
100
AcDbEntity
8
0
100
AcDbLine
10
124.48302467713796
20
52.113015864363213
30
0
11
103.83716814407281
21
64.032906691378798
31
0
0
LINE
5
165
100
AcDbEntity
8
0
100
AcDbLine
10
63.915677774606721
20
62.58669247480934
30
0
11
63.876422959339791
21
63.30979958309409
31
0
0
LINE
5
166
100
AcDbEntity
8
0
100
AcDbLine
10
103.26982124154156
20
39.865567150447355
30
0
11
82.623964708476421
21
51.785457977462912
31
0
0
ELLIPSE
5
167
100
AcDbEntity
8
0
100
AcDbEllipse
10
83.876422959339777
20
100.05214572484181
30
0
11
-30
21
3.6739403974420592e-15
31
0.0
40
0.57735026918962562
41
4.9741883681838388
42
6.0213859193804415
0
LINE
5
168
100
AcDbEntity
8
0
100
AcDbLine
10
103.83716814407293
20
87.121965890179055
30
0
11
103.83716814407281
21
64.032906691378798
31
0
0
LINE
5
169
100
AcDbEntity
8
0
100
AcDbLine
10
103.83716814407281
20
100.77525283312652
30
0
11
103.83716814407293
21
87.121965890179055
31
0
0
LINE
5
170
100
AcDbEntity
8
0
100
AcDbLine
10
83.876422959339806
20
118.38207734339632
30
0
11
83.876422959339777
21
49.062350869178182
31
0
0
CIRCLE
5
171
100
AcDbEntity
8
0
100
AcDbCircle
10
81.675556641261821
20
210.71196710303411
30
0
40
52.5
210
0
220
0
230
1
0
LWPOLYLINE
5
172
100
AcDbEntity
8
0
100
AcDbPolyline
90
10
70
1
43
0.0
10
66.063061645265805
20
198.21196710303411
42
0.48038446141526153
10
97.288051637257809
20
198.21196710303411
42
0.35100040032032043
10
97.288051637257809
20
223.21196710303411
42
0.22773507729237027
10
81.675556641261821
20
230.71196710303411
42
0.22773507729237022
10
66.063061645265833
20
223.21196710303411
10
54.40377635467253
20
223.21196710303411
42
-0.29325275459714373
10
81.675556641261807
20
240.71196710303411
42
-0.29325275459714373
10
108.9473369278511
20
223.21196710303411
42
-0.2182575770728572
10
108.94733692785107
20
198.21196710303411
42
-0.64168894791974784
10
54.403776354672537
20
198.21196710303411
0
LINE
5
173
100
AcDbEntity
8
0
100
AcDbLine
10
108.9473369278511
20
223.21196710303411
30
0
11
97.288051637257809
21
223.21196710303411
31
0
0
LINE
5
174
100
AcDbEntity
8
0
100
AcDbLine
10
108.9473369278511
20
198.21196710303411
30
0
11
97.288051637257809
21
198.21196710303411
31
0
0
ARC
5
175
100
AcDbEntity
8
0
100
AcDbCircle
10
81.675556641261821
20
210.71196710303411
30
0
40
29.999999999999996
210
0
220
0
230
1
100
AcDbArc
50
155.37568164783593
51
204.62431835216407
0
ARC
5
176
100
AcDbEntity
8
0
100
AcDbCircle
10
81.675556641261821
20
210.71196710303411
30
0
40
19.999999999999989
210
0
220
0
230
1
100
AcDbArc
50
141.31781254651054
51
218.68218745348938
0
ARC
5
177
100
AcDbEntity
8
0
100
AcDbCircle
10
81.675556641261821
20
210.71196710303411
30
0
40
45
210
0
220
0
230
1
100
AcDbArc
50
-19.471220634490685
51
19.471220634490674
0
LINE
5
178
100
AcDbEntity
8
0
100
AcDbLine
10
107.656318754795
20
225.71196710303417
30
0
11
124.10196351245467
21
225.71196710303411
31
0
0
LINE
5
179
100
AcDbEntity
8
0
100
AcDbLine
10
107.656318754795
20
195.71196710303411
30
0
11
124.10196351245467
21
195.71196710303411
31
0
0
ARC
5
180
100
AcDbEntity
8
0
100
AcDbCircle
10
81.675556641261821
20
210.71196710303411
30
0
40
45
210
0
220
0
230
1
100
AcDbArc
50
160.52877936550942
51
199.47122063449055
0
LINE
5
181
100
AcDbEntity
8
0
100
AcDbLine
10
55.694794527728746
20
225.71196710303434
30
0
11
39.249149770068939
21
225.71196710303406
31
0
0
LINE
5
182
100
AcDbEntity
8
0
100
AcDbLine
10
55.694794527728746
20
195.71196710303397
30
0
11
39.249149770068932
21
195.71196710303423
31
0
0
LINE
5
183
100
AcDbEntity
8
0
100
AcDbLine
10
179.2214871861992
20
203.99272634888874
30
0
11
186.72148718619911
21
203.99272634888874
31
0
0
LINE
5
184
100
AcDbEntity
8
0
100
AcDbLine
10
239.22148718619923
20
203.99272634888874
30
0
11
231.72148718619934
21
203.99272634888874
31
0
0
LINE
5
185
100
AcDbEntity
8
0
100
AcDbLine
10
231.72148718619934
20
203.99272634888874
30
0
11
231.89085436880612
21
158.99272634888868
31
0
0
LINE
5
186
100
AcDbEntity
8
0
100
AcDbLine
10
231.72148718619934
20
203.99272634888874
30
0
11
231.72148718619934
21
254.05376818085895
31
0
0
LINE
5
187
100
AcDbEntity
8
0
100
AcDbLine
10
186.72148718619911
20
203.99272634888874
30
0
11
186.72148718619911
21
254.05376818085895
31
0
0
LINE
5
188
100
AcDbEntity
8
0
100
AcDbLine
10
186.72148718619911
20
203.99272634888874
30
0
11
186.72148718619911
21
158.99272634888868
31
0
0
LINE
5
189
100
AcDbEntity
8
0
100
AcDbLine
10
81.675556641261821
20
210.71196710303411
30
0
11
136.17555664126178
21
210.71196710303411
31
0
0
LINE
5
190
100
AcDbEntity
8
0
100
AcDbLine
10
81.675556641261821
20
210.71196710303411
30
0
11
27.175556641261824
21
210.71196710303411
31
0
0
LINE
5
191
100
AcDbEntity
8
0
100
AcDbLine
10
81.675556641261821
20
210.71196710303411
30
0
11
81.675556641261821
21
265.21196710303411
31
0
0
LINE
5
192
100
AcDbEntity
8
0
100
AcDbLine
10
81.675556641261821
20
210.71196710303411
30
0
11
81.675556641261821
21
156.21196710303408
31
0
0
LWPOLYLINE
5
193
100
AcDbEntity
8
0
100
AcDbPolyline
90
8
70
1
43
0.0
10
179.2214871861992
20
203.99272634888874
10
156.7214871861992
20
158.99272634888868
10
261.72148718619917
20
158.99272634888868
10
239.22148718619923
20
203.99272634888874
10
239.22148718619923
20
263.99272634888871
10
221.72148718619923
20
238.99272634888874
10
196.72148718619923
20
238.99272634888874
10
179.2214871861992
20
263.99272634888871
0
LINE
5
194
100
AcDbEntity
8
0
100
AcDbLine
10
239.22148718619923
20
203.99272634888874
30
0
11
224.22148718619945
21
203.99272634888874
31
0
0
LINE
5
195
100
AcDbEntity
8
0
100
AcDbLine
10
194.22148718619911
20
203.99272634888874
30
0
11
179.2214871861992
21
203.99272634888874
31
0
0
LWPOLYLINE
5
196
100
AcDbEntity
8
0
100
AcDbPolyline
90
6
70
1
43
0.0
10
194.22148718619923
20
218.99272634888874
10
194.22148718619911
20
203.99272634888874
10
194.22148718619923
20
173.99272634888871
10
224.22148718619923
20
173.99272634888871
10
224.22148718619945
20
203.99272634888874
10
224.22148718619923
20
218.99272634888874
0
LINE
5
197
100
AcDbEntity
8
0
100
AcDbLine
10
209.22148718619923
20
240.99272634888874
30
0
11
209.22148718619923
21
156.99272634888868
31
0
0
ENDSEC
0
SECTION
2
OBJECTS
0
DICTIONARY
5
C
100
AcDbDictionary
3
ACAD_GROUP
350
D
3
ACAD_MLINESTYLE
350
17
0
DICTIONARY
5
D
100
AcDbDictionary
0
DICTIONARY
5
1A
330
C
100
AcDbDictionary
0
DICTIONARY
5
17
100
AcDbDictionary
0
ENDSEC
0
EOF
